# Built-in cylinder primitive. Unit-sized and centered at the origin.
v 0.500000 -0.500000 0.000000
v 0.500000 0.500000 0.000000
v 0.433013 -0.500000 0.250000
v 0.433013 0.500000 0.250000
v 0.250000 -0.500000 0.433013
v 0.250000 0.500000 0.433013
v 0.000000 -0.500000 0.500000
v 0.000000 0.500000 0.500000
v -0.250000 -0.500000 0.433013
v -0.250000 0.500000 0.433013
v -0.433013 -0.500000 0.250000
v -0.433013 0.500000 0.250000
v -0.500000 -0.500000 0.000000
v -0.500000 0.500000 0.000000
v -0.433013 -0.500000 -0.250000
v -0.433013 0.500000 -0.250000
v -0.250000 -0.500000 -0.433013
v -0.250000 0.500000 -0.433013
v 0.000000 -0.500000 -0.500000
v 0.000000 0.500000 -0.500000
v 0.250000 -0.500000 -0.433013
v 0.250000 0.500000 -0.433013
v 0.433013 -0.500000 -0.250000
v 0.433013 0.500000 -0.250000
v 0.500000 -0.500000 0.000000
v 0.500000 0.500000 0.000000
v 0.000000 -0.500000 0.000000
v 0.500000 -0.500000 0.000000
v 0.433013 -0.500000 0.250000
v 0.000000 0.500000 0.000000
v 0.433013 0.500000 0.250000
v 0.500000 0.500000 0.000000
v 0.000000 -0.500000 0.000000
v 0.433013 -0.500000 0.250000
v 0.250000 -0.500000 0.433013
v 0.000000 0.500000 0.000000
v 0.250000 0.500000 0.433013
v 0.433013 0.500000 0.250000
v 0.000000 -0.500000 0.000000
v 0.250000 -0.500000 0.433013
v 0.000000 -0.500000 0.500000
v 0.000000 0.500000 0.000000
v 0.000000 0.500000 0.500000
v 0.250000 0.500000 0.433013
v 0.000000 -0.500000 0.000000
v 0.000000 -0.500000 0.500000
v -0.250000 -0.500000 0.433013
v 0.000000 0.500000 0.000000
v -0.250000 0.500000 0.433013
v 0.000000 0.500000 0.500000
v 0.000000 -0.500000 0.000000
v -0.250000 -0.500000 0.433013
v -0.433013 -0.500000 0.250000
v 0.000000 0.500000 0.000000
v -0.433013 0.500000 0.250000
v -0.250000 0.500000 0.433013
v 0.000000 -0.500000 0.000000
v -0.433013 -0.500000 0.250000
v -0.500000 -0.500000 0.000000
v 0.000000 0.500000 0.000000
v -0.500000 0.500000 0.000000
v -0.433013 0.500000 0.250000
v 0.000000 -0.500000 0.000000
v -0.500000 -0.500000 0.000000
v -0.433013 -0.500000 -0.250000
v 0.000000 0.500000 0.000000
v -0.433013 0.500000 -0.250000
v -0.500000 0.500000 0.000000
v 0.000000 -0.500000 0.000000
v -0.433013 -0.500000 -0.250000
v -0.250000 -0.500000 -0.433013
v 0.000000 0.500000 0.000000
v -0.250000 0.500000 -0.433013
v -0.433013 0.500000 -0.250000
v 0.000000 -0.500000 0.000000
v -0.250000 -0.500000 -0.433013
v 0.000000 -0.500000 -0.500000
v 0.000000 0.500000 0.000000
v 0.000000 0.500000 -0.500000
v -0.250000 0.500000 -0.433013
v 0.000000 -0.500000 0.000000
v 0.000000 -0.500000 -0.500000
v 0.250000 -0.500000 -0.433013
v 0.000000 0.500000 0.000000
v 0.250000 0.500000 -0.433013
v 0.000000 0.500000 -0.500000
v 0.000000 -0.500000 0.000000
v 0.250000 -0.500000 -0.433013
v 0.433013 -0.500000 -0.250000
v 0.000000 0.500000 0.000000
v 0.433013 0.500000 -0.250000
v 0.250000 0.500000 -0.433013
v 0.000000 -0.500000 0.000000
v 0.433013 -0.500000 -0.250000
v 0.500000 -0.500000 0.000000
v 0.000000 0.500000 0.000000
v 0.500000 0.500000 0.000000
v 0.433013 0.500000 -0.250000
vt 0.000000 0.000000
vt 0.000000 1.000000
vt 0.083333 0.000000
vt 0.083333 1.000000
vt 0.166667 0.000000
vt 0.166667 1.000000
vt 0.250000 0.000000
vt 0.250000 1.000000
vt 0.333333 0.000000
vt 0.333333 1.000000
vt 0.416667 0.000000
vt 0.416667 1.000000
vt 0.500000 0.000000
vt 0.500000 1.000000
vt 0.583333 0.000000
vt 0.583333 1.000000
vt 0.666667 0.000000
vt 0.666667 1.000000
vt 0.750000 0.000000
vt 0.750000 1.000000
vt 0.833333 0.000000
vt 0.833333 1.000000
vt 0.916667 0.000000
vt 0.916667 1.000000
vt 1.000000 0.000000
vt 1.000000 1.000000
vt 0.000000 0.000000
vt 0.500000 1.000000
vt 1.000000 0.000000
vt 0.000000 0.000000
vt 0.500000 1.000000
vt 1.000000 0.000000
vt 0.000000 0.000000
vt 0.500000 1.000000
vt 1.000000 0.000000
vt 0.000000 0.000000
vt 0.500000 1.000000
vt 1.000000 0.000000
vt 0.000000 0.000000
vt 0.500000 1.000000
vt 1.000000 0.000000
vt 0.000000 0.000000
vt 0.500000 1.000000
vt 1.000000 0.000000
vt 0.000000 0.000000
vt 0.500000 1.000000
vt 1.000000 0.000000
vt 0.000000 0.000000
vt 0.500000 1.000000
vt 1.000000 0.000000
vt 0.000000 0.000000
vt 0.500000 1.000000
vt 1.000000 0.000000
vt 0.000000 0.000000
vt 0.500000 1.000000
vt 1.000000 0.000000
vt 0.000000 0.000000
vt 0.500000 1.000000
vt 1.000000 0.000000
vt 0.000000 0.000000
vt 0.500000 1.000000
vt 1.000000 0.000000
vt 0.000000 0.000000
vt 0.500000 1.000000
vt 1.000000 0.000000
vt 0.000000 0.000000
vt 0.500000 1.000000
vt 1.000000 0.000000
vt 0.000000 0.000000
vt 0.500000 1.000000
vt 1.000000 0.000000
vt 0.000000 0.000000
vt 0.500000 1.000000
vt 1.000000 0.000000
vt 0.000000 0.000000
vt 0.500000 1.000000
vt 1.000000 0.000000
vt 0.000000 0.000000
vt 0.500000 1.000000
vt 1.000000 0.000000
vt 0.000000 0.000000
vt 0.500000 1.000000
vt 1.000000 0.000000
vt 0.000000 0.000000
vt 0.500000 1.000000
vt 1.000000 0.000000
vt 0.000000 0.000000
vt 0.500000 1.000000
vt 1.000000 0.000000
vt 0.000000 0.000000
vt 0.500000 1.000000
vt 1.000000 0.000000
vt 0.000000 0.000000
vt 0.500000 1.000000
vt 1.000000 0.000000
vt 0.000000 0.000000
vt 0.500000 1.000000
vt 1.000000 0.000000
vn 1.000000 0.000000 0.000000
vn 1.000000 0.000000 0.000000
vn 0.866025 0.000000 0.500000
vn 0.866025 0.000000 0.500000
vn 0.500000 0.000000 0.866025
vn 0.500000 0.000000 0.866025
vn 0.000000 0.000000 1.000000
vn 0.000000 0.000000 1.000000
vn -0.500000 0.000000 0.866025
vn -0.500000 0.000000 0.866025
vn -0.866025 0.000000 0.500000
vn -0.866025 0.000000 0.500000
vn -1.000000 0.000000 0.000000
vn -1.000000 0.000000 0.000000
vn -0.866025 0.000000 -0.500000
vn -0.866025 0.000000 -0.500000
vn -0.500000 0.000000 -0.866025
vn -0.500000 0.000000 -0.866025
vn 0.000000 0.000000 -1.000000
vn 0.000000 0.000000 -1.000000
vn 0.500000 0.000000 -0.866025
vn 0.500000 0.000000 -0.866025
vn 0.866025 0.000000 -0.500000
vn 0.866025 0.000000 -0.500000
vn 1.000000 0.000000 0.000000
vn 1.000000 0.000000 0.000000
vn 0.000000 -1.000000 0.000000
vn 0.000000 -1.000000 0.000000
vn 0.000000 -1.000000 0.000000
vn 0.000000 1.000000 0.000000
vn 0.000000 1.000000 0.000000
vn 0.000000 1.000000 0.000000
vn 0.000000 -1.000000 0.000000
vn 0.000000 -1.000000 0.000000
vn 0.000000 -1.000000 0.000000
vn 0.000000 1.000000 0.000000
vn 0.000000 1.000000 0.000000
vn 0.000000 1.000000 0.000000
vn 0.000000 -1.000000 0.000000
vn 0.000000 -1.000000 0.000000
vn 0.000000 -1.000000 0.000000
vn 0.000000 1.000000 0.000000
vn 0.000000 1.000000 0.000000
vn 0.000000 1.000000 0.000000
vn 0.000000 -1.000000 0.000000
vn 0.000000 -1.000000 0.000000
vn 0.000000 -1.000000 0.000000
vn 0.000000 1.000000 0.000000
vn 0.000000 1.000000 0.000000
vn 0.000000 1.000000 0.000000
vn 0.000000 -1.000000 0.000000
vn 0.000000 -1.000000 0.000000
vn 0.000000 -1.000000 0.000000
vn 0.000000 1.000000 0.000000
vn 0.000000 1.000000 0.000000
vn 0.000000 1.000000 0.000000
vn 0.000000 -1.000000 0.000000
vn 0.000000 -1.000000 0.000000
vn 0.000000 -1.000000 0.000000
vn 0.000000 1.000000 0.000000
vn 0.000000 1.000000 0.000000
vn 0.000000 1.000000 0.000000
vn 0.000000 -1.000000 0.000000
vn 0.000000 -1.000000 0.000000
vn 0.000000 -1.000000 0.000000
vn 0.000000 1.000000 0.000000
vn 0.000000 1.000000 0.000000
vn 0.000000 1.000000 0.000000
vn 0.000000 -1.000000 0.000000
vn 0.000000 -1.000000 0.000000
vn 0.000000 -1.000000 0.000000
vn 0.000000 1.000000 0.000000
vn 0.000000 1.000000 0.000000
vn 0.000000 1.000000 0.000000
vn 0.000000 -1.000000 0.000000
vn 0.000000 -1.000000 0.000000
vn 0.000000 -1.000000 0.000000
vn 0.000000 1.000000 0.000000
vn 0.000000 1.000000 0.000000
vn 0.000000 1.000000 0.000000
vn 0.000000 -1.000000 0.000000
vn 0.000000 -1.000000 0.000000
vn 0.000000 -1.000000 0.000000
vn 0.000000 1.000000 0.000000
vn 0.000000 1.000000 0.000000
vn 0.000000 1.000000 0.000000
vn 0.000000 -1.000000 0.000000
vn 0.000000 -1.000000 0.000000
vn 0.000000 -1.000000 0.000000
vn 0.000000 1.000000 0.000000
vn 0.000000 1.000000 0.000000
vn 0.000000 1.000000 0.000000
vn 0.000000 -1.000000 0.000000
vn 0.000000 -1.000000 0.000000
vn 0.000000 -1.000000 0.000000
vn 0.000000 1.000000 0.000000
vn 0.000000 1.000000 0.000000
vn 0.000000 1.000000 0.000000
f 1/1/1 4/4/4 3/3/3
f 1/1/1 2/2/2 4/4/4
f 27/27/27 28/28/28 29/29/29
f 30/30/30 31/31/31 32/32/32
f 3/3/3 6/6/6 5/5/5
f 3/3/3 4/4/4 6/6/6
f 33/33/33 34/34/34 35/35/35
f 36/36/36 37/37/37 38/38/38
f 5/5/5 8/8/8 7/7/7
f 5/5/5 6/6/6 8/8/8
f 39/39/39 40/40/40 41/41/41
f 42/42/42 43/43/43 44/44/44
f 7/7/7 10/10/10 9/9/9
f 7/7/7 8/8/8 10/10/10
f 45/45/45 46/46/46 47/47/47
f 48/48/48 49/49/49 50/50/50
f 9/9/9 12/12/12 11/11/11
f 9/9/9 10/10/10 12/12/12
f 51/51/51 52/52/52 53/53/53
f 54/54/54 55/55/55 56/56/56
f 11/11/11 14/14/14 13/13/13
f 11/11/11 12/12/12 14/14/14
f 57/57/57 58/58/58 59/59/59
f 60/60/60 61/61/61 62/62/62
f 13/13/13 16/16/16 15/15/15
f 13/13/13 14/14/14 16/16/16
f 63/63/63 64/64/64 65/65/65
f 66/66/66 67/67/67 68/68/68
f 15/15/15 18/18/18 17/17/17
f 15/15/15 16/16/16 18/18/18
f 69/69/69 70/70/70 71/71/71
f 72/72/72 73/73/73 74/74/74
f 17/17/17 20/20/20 19/19/19
f 17/17/17 18/18/18 20/20/20
f 75/75/75 76/76/76 77/77/77
f 78/78/78 79/79/79 80/80/80
f 19/19/19 22/22/22 21/21/21
f 19/19/19 20/20/20 22/22/22
f 81/81/81 82/82/82 83/83/83
f 84/84/84 85/85/85 86/86/86
f 21/21/21 24/24/24 23/23/23
f 21/21/21 22/22/22 24/24/24
f 87/87/87 88/88/88 89/89/89
f 90/90/90 91/91/91 92/92/92
f 23/23/23 26/26/26 25/25/25
f 23/23/23 24/24/24 26/26/26
f 93/93/93 94/94/94 95/95/95
f 96/96/96 97/97/97 98/98/98
