# Smooth square tunnel: 48 longitudinal sections over 10 units, tapered 4.5 -> 1.125.
# Its companion scene maps every vertex through an inverse exponential chart.
vt 0 0
vt 1 0
vt 1 1
vt 0 1
vn 0 1 0
vn 0 -1 0
vn 1 0 0
vn -1 0 0
v -4.500000 0.000000 0.000000
v 4.500000 0.000000 0.000000
v 4.371894 0.128106 0.208333
v -4.371894 0.128106 0.208333
f 1/1/1 3/3/1 2/2/1
f 1/1/1 4/4/1 3/3/1
v -4.500000 9.000000 0.000000
v 4.500000 9.000000 0.000000
v 4.371894 8.871894 0.208333
v -4.371894 8.871894 0.208333
f 5/1/2 6/2/2 7/3/2
f 5/1/2 7/3/2 8/4/2
v -4.500000 0.000000 0.000000
v -4.500000 9.000000 0.000000
v -4.371894 8.871894 0.208333
v -4.371894 0.128106 0.208333
f 9/1/3 10/2/3 11/3/3
f 9/1/3 11/3/3 12/4/3
v 4.500000 0.000000 0.000000
v 4.500000 9.000000 0.000000
v 4.371894 8.871894 0.208333
v 4.371894 0.128106 0.208333
f 13/1/4 15/3/4 14/2/4
f 13/1/4 16/4/4 15/3/4
v -4.371894 0.128106 0.208333
v 4.371894 0.128106 0.208333
v 4.247435 0.252566 0.416667
v -4.247435 0.252566 0.416667
f 17/1/1 19/3/1 18/2/1
f 17/1/1 20/4/1 19/3/1
v -4.371894 8.871894 0.208333
v 4.371894 8.871894 0.208333
v 4.247435 8.747435 0.416667
v -4.247435 8.747435 0.416667
f 21/1/2 22/2/2 23/3/2
f 21/1/2 23/3/2 24/4/2
v -4.371894 0.128106 0.208333
v -4.371894 8.871894 0.208333
v -4.247435 8.747435 0.416667
v -4.247435 0.252566 0.416667
f 25/1/3 26/2/3 27/3/3
f 25/1/3 27/3/3 28/4/3
v 4.371894 0.128106 0.208333
v 4.371894 8.871894 0.208333
v 4.247435 8.747435 0.416667
v 4.247435 0.252566 0.416667
f 29/1/4 31/3/4 30/2/4
f 29/1/4 32/4/4 31/3/4
v -4.247435 0.252566 0.416667
v 4.247435 0.252566 0.416667
v 4.126518 0.373482 0.625000
v -4.126518 0.373482 0.625000
f 33/1/1 35/3/1 34/2/1
f 33/1/1 36/4/1 35/3/1
v -4.247435 8.747435 0.416667
v 4.247435 8.747435 0.416667
v 4.126518 8.626518 0.625000
v -4.126518 8.626518 0.625000
f 37/1/2 38/2/2 39/3/2
f 37/1/2 39/3/2 40/4/2
v -4.247435 0.252566 0.416667
v -4.247435 8.747435 0.416667
v -4.126518 8.626518 0.625000
v -4.126518 0.373482 0.625000
f 41/1/3 42/2/3 43/3/3
f 41/1/3 43/3/3 44/4/3
v 4.247435 0.252566 0.416667
v 4.247435 8.747435 0.416667
v 4.126518 8.626518 0.625000
v 4.126518 0.373482 0.625000
f 45/1/4 47/3/4 46/2/4
f 45/1/4 48/4/4 47/3/4
v -4.126518 0.373482 0.625000
v 4.126518 0.373482 0.625000
v 4.009044 0.490956 0.833333
v -4.009044 0.490956 0.833333
f 49/1/1 51/3/1 50/2/1
f 49/1/1 52/4/1 51/3/1
v -4.126518 8.626518 0.625000
v 4.126518 8.626518 0.625000
v 4.009044 8.509044 0.833333
v -4.009044 8.509044 0.833333
f 53/1/2 54/2/2 55/3/2
f 53/1/2 55/3/2 56/4/2
v -4.126518 0.373482 0.625000
v -4.126518 8.626518 0.625000
v -4.009044 8.509044 0.833333
v -4.009044 0.490956 0.833333
f 57/1/3 58/2/3 59/3/3
f 57/1/3 59/3/3 60/4/3
v 4.126518 0.373482 0.625000
v 4.126518 8.626518 0.625000
v 4.009044 8.509044 0.833333
v 4.009044 0.490956 0.833333
f 61/1/4 63/3/4 62/2/4
f 61/1/4 64/4/4 63/3/4
v -4.009044 0.490956 0.833333
v 4.009044 0.490956 0.833333
v 3.894914 0.605086 1.041667
v -3.894914 0.605086 1.041667
f 65/1/1 67/3/1 66/2/1
f 65/1/1 68/4/1 67/3/1
v -4.009044 8.509044 0.833333
v 4.009044 8.509044 0.833333
v 3.894914 8.394914 1.041667
v -3.894914 8.394914 1.041667
f 69/1/2 70/2/2 71/3/2
f 69/1/2 71/3/2 72/4/2
v -4.009044 0.490956 0.833333
v -4.009044 8.509044 0.833333
v -3.894914 8.394914 1.041667
v -3.894914 0.605086 1.041667
f 73/1/3 74/2/3 75/3/3
f 73/1/3 75/3/3 76/4/3
v 4.009044 0.490956 0.833333
v 4.009044 8.509044 0.833333
v 3.894914 8.394914 1.041667
v 3.894914 0.605086 1.041667
f 77/1/4 79/3/4 78/2/4
f 77/1/4 80/4/4 79/3/4
v -3.894914 0.605086 1.041667
v 3.894914 0.605086 1.041667
v 3.784034 0.715967 1.250000
v -3.784034 0.715967 1.250000
f 81/1/1 83/3/1 82/2/1
f 81/1/1 84/4/1 83/3/1
v -3.894914 8.394914 1.041667
v 3.894914 8.394914 1.041667
v 3.784034 8.284034 1.250000
v -3.784034 8.284034 1.250000
f 85/1/2 86/2/2 87/3/2
f 85/1/2 87/3/2 88/4/2
v -3.894914 0.605086 1.041667
v -3.894914 8.394914 1.041667
v -3.784034 8.284034 1.250000
v -3.784034 0.715967 1.250000
f 89/1/3 90/2/3 91/3/3
f 89/1/3 91/3/3 92/4/3
v 3.894914 0.605086 1.041667
v 3.894914 8.394914 1.041667
v 3.784034 8.284034 1.250000
v 3.784034 0.715967 1.250000
f 93/1/4 95/3/4 94/2/4
f 93/1/4 96/4/4 95/3/4
v -3.784034 0.715967 1.250000
v 3.784034 0.715967 1.250000
v 3.676310 0.823691 1.458333
v -3.676310 0.823691 1.458333
f 97/1/1 99/3/1 98/2/1
f 97/1/1 100/4/1 99/3/1
v -3.784034 8.284034 1.250000
v 3.784034 8.284034 1.250000
v 3.676310 8.176310 1.458333
v -3.676310 8.176310 1.458333
f 101/1/2 102/2/2 103/3/2
f 101/1/2 103/3/2 104/4/2
v -3.784034 0.715967 1.250000
v -3.784034 8.284034 1.250000
v -3.676310 8.176310 1.458333
v -3.676310 0.823691 1.458333
f 105/1/3 106/2/3 107/3/3
f 105/1/3 107/3/3 108/4/3
v 3.784034 0.715967 1.250000
v 3.784034 8.284034 1.250000
v 3.676310 8.176310 1.458333
v 3.676310 0.823691 1.458333
f 109/1/4 111/3/4 110/2/4
f 109/1/4 112/4/4 111/3/4
v -3.676310 0.823691 1.458333
v 3.676310 0.823691 1.458333
v 3.571652 0.928348 1.666667
v -3.571652 0.928348 1.666667
f 113/1/1 115/3/1 114/2/1
f 113/1/1 116/4/1 115/3/1
v -3.676310 8.176310 1.458333
v 3.676310 8.176310 1.458333
v 3.571652 8.071652 1.666667
v -3.571652 8.071652 1.666667
f 117/1/2 118/2/2 119/3/2
f 117/1/2 119/3/2 120/4/2
v -3.676310 0.823691 1.458333
v -3.676310 8.176310 1.458333
v -3.571652 8.071652 1.666667
v -3.571652 0.928348 1.666667
f 121/1/3 122/2/3 123/3/3
f 121/1/3 123/3/3 124/4/3
v 3.676310 0.823691 1.458333
v 3.676310 8.176310 1.458333
v 3.571652 8.071652 1.666667
v 3.571652 0.928348 1.666667
f 125/1/4 127/3/4 126/2/4
f 125/1/4 128/4/4 127/3/4
v -3.571652 0.928348 1.666667
v 3.571652 0.928348 1.666667
v 3.469974 1.030026 1.875000
v -3.469974 1.030026 1.875000
f 129/1/1 131/3/1 130/2/1
f 129/1/1 132/4/1 131/3/1
v -3.571652 8.071652 1.666667
v 3.571652 8.071652 1.666667
v 3.469974 7.969974 1.875000
v -3.469974 7.969974 1.875000
f 133/1/2 134/2/2 135/3/2
f 133/1/2 135/3/2 136/4/2
v -3.571652 0.928348 1.666667
v -3.571652 8.071652 1.666667
v -3.469974 7.969974 1.875000
v -3.469974 1.030026 1.875000
f 137/1/3 138/2/3 139/3/3
f 137/1/3 139/3/3 140/4/3
v 3.571652 0.928348 1.666667
v 3.571652 8.071652 1.666667
v 3.469974 7.969974 1.875000
v 3.469974 1.030026 1.875000
f 141/1/4 143/3/4 142/2/4
f 141/1/4 144/4/4 143/3/4
v -3.469974 1.030026 1.875000
v 3.469974 1.030026 1.875000
v 3.371191 1.128809 2.083333
v -3.371191 1.128809 2.083333
f 145/1/1 147/3/1 146/2/1
f 145/1/1 148/4/1 147/3/1
v -3.469974 7.969974 1.875000
v 3.469974 7.969974 1.875000
v 3.371191 7.871191 2.083333
v -3.371191 7.871191 2.083333
f 149/1/2 150/2/2 151/3/2
f 149/1/2 151/3/2 152/4/2
v -3.469974 1.030026 1.875000
v -3.469974 7.969974 1.875000
v -3.371191 7.871191 2.083333
v -3.371191 1.128809 2.083333
f 153/1/3 154/2/3 155/3/3
f 153/1/3 155/3/3 156/4/3
v 3.469974 1.030026 1.875000
v 3.469974 7.969974 1.875000
v 3.371191 7.871191 2.083333
v 3.371191 1.128809 2.083333
f 157/1/4 159/3/4 158/2/4
f 157/1/4 160/4/4 159/3/4
v -3.371191 1.128809 2.083333
v 3.371191 1.128809 2.083333
v 3.275220 1.224780 2.291667
v -3.275220 1.224780 2.291667
f 161/1/1 163/3/1 162/2/1
f 161/1/1 164/4/1 163/3/1
v -3.371191 7.871191 2.083333
v 3.371191 7.871191 2.083333
v 3.275220 7.775220 2.291667
v -3.275220 7.775220 2.291667
f 165/1/2 166/2/2 167/3/2
f 165/1/2 167/3/2 168/4/2
v -3.371191 1.128809 2.083333
v -3.371191 7.871191 2.083333
v -3.275220 7.775220 2.291667
v -3.275220 1.224780 2.291667
f 169/1/3 170/2/3 171/3/3
f 169/1/3 171/3/3 172/4/3
v 3.371191 1.128809 2.083333
v 3.371191 7.871191 2.083333
v 3.275220 7.775220 2.291667
v 3.275220 1.224780 2.291667
f 173/1/4 175/3/4 174/2/4
f 173/1/4 176/4/4 175/3/4
v -3.275220 1.224780 2.291667
v 3.275220 1.224780 2.291667
v 3.181981 1.318019 2.500000
v -3.181981 1.318019 2.500000
f 177/1/1 179/3/1 178/2/1
f 177/1/1 180/4/1 179/3/1
v -3.275220 7.775220 2.291667
v 3.275220 7.775220 2.291667
v 3.181981 7.681981 2.500000
v -3.181981 7.681981 2.500000
f 181/1/2 182/2/2 183/3/2
f 181/1/2 183/3/2 184/4/2
v -3.275220 1.224780 2.291667
v -3.275220 7.775220 2.291667
v -3.181981 7.681981 2.500000
v -3.181981 1.318019 2.500000
f 185/1/3 186/2/3 187/3/3
f 185/1/3 187/3/3 188/4/3
v 3.275220 1.224780 2.291667
v 3.275220 7.775220 2.291667
v 3.181981 7.681981 2.500000
v 3.181981 1.318019 2.500000
f 189/1/4 191/3/4 190/2/4
f 189/1/4 192/4/4 191/3/4
v -3.181981 1.318019 2.500000
v 3.181981 1.318019 2.500000
v 3.091396 1.408604 2.708333
v -3.091396 1.408604 2.708333
f 193/1/1 195/3/1 194/2/1
f 193/1/1 196/4/1 195/3/1
v -3.181981 7.681981 2.500000
v 3.181981 7.681981 2.500000
v 3.091396 7.591396 2.708333
v -3.091396 7.591396 2.708333
f 197/1/2 198/2/2 199/3/2
f 197/1/2 199/3/2 200/4/2
v -3.181981 1.318019 2.500000
v -3.181981 7.681981 2.500000
v -3.091396 7.591396 2.708333
v -3.091396 1.408604 2.708333
f 201/1/3 202/2/3 203/3/3
f 201/1/3 203/3/3 204/4/3
v 3.181981 1.318019 2.500000
v 3.181981 7.681981 2.500000
v 3.091396 7.591396 2.708333
v 3.091396 1.408604 2.708333
f 205/1/4 207/3/4 206/2/4
f 205/1/4 208/4/4 207/3/4
v -3.091396 1.408604 2.708333
v 3.091396 1.408604 2.708333
v 3.003390 1.496610 2.916667
v -3.003390 1.496610 2.916667
f 209/1/1 211/3/1 210/2/1
f 209/1/1 212/4/1 211/3/1
v -3.091396 7.591396 2.708333
v 3.091396 7.591396 2.708333
v 3.003390 7.503390 2.916667
v -3.003390 7.503390 2.916667
f 213/1/2 214/2/2 215/3/2
f 213/1/2 215/3/2 216/4/2
v -3.091396 1.408604 2.708333
v -3.091396 7.591396 2.708333
v -3.003390 7.503390 2.916667
v -3.003390 1.496610 2.916667
f 217/1/3 218/2/3 219/3/3
f 217/1/3 219/3/3 220/4/3
v 3.091396 1.408604 2.708333
v 3.091396 7.591396 2.708333
v 3.003390 7.503390 2.916667
v 3.003390 1.496610 2.916667
f 221/1/4 223/3/4 222/2/4
f 221/1/4 224/4/4 223/3/4
v -3.003390 1.496610 2.916667
v 3.003390 1.496610 2.916667
v 2.917889 1.582111 3.125000
v -2.917889 1.582111 3.125000
f 225/1/1 227/3/1 226/2/1
f 225/1/1 228/4/1 227/3/1
v -3.003390 7.503390 2.916667
v 3.003390 7.503390 2.916667
v 2.917889 7.417889 3.125000
v -2.917889 7.417889 3.125000
f 229/1/2 230/2/2 231/3/2
f 229/1/2 231/3/2 232/4/2
v -3.003390 1.496610 2.916667
v -3.003390 7.503390 2.916667
v -2.917889 7.417889 3.125000
v -2.917889 1.582111 3.125000
f 233/1/3 234/2/3 235/3/3
f 233/1/3 235/3/3 236/4/3
v 3.003390 1.496610 2.916667
v 3.003390 7.503390 2.916667
v 2.917889 7.417889 3.125000
v 2.917889 1.582111 3.125000
f 237/1/4 239/3/4 238/2/4
f 237/1/4 240/4/4 239/3/4
v -2.917889 1.582111 3.125000
v 2.917889 1.582111 3.125000
v 2.834822 1.665178 3.333333
v -2.834822 1.665178 3.333333
f 241/1/1 243/3/1 242/2/1
f 241/1/1 244/4/1 243/3/1
v -2.917889 7.417889 3.125000
v 2.917889 7.417889 3.125000
v 2.834822 7.334822 3.333333
v -2.834822 7.334822 3.333333
f 245/1/2 246/2/2 247/3/2
f 245/1/2 247/3/2 248/4/2
v -2.917889 1.582111 3.125000
v -2.917889 7.417889 3.125000
v -2.834822 7.334822 3.333333
v -2.834822 1.665178 3.333333
f 249/1/3 250/2/3 251/3/3
f 249/1/3 251/3/3 252/4/3
v 2.917889 1.582111 3.125000
v 2.917889 7.417889 3.125000
v 2.834822 7.334822 3.333333
v 2.834822 1.665178 3.333333
f 253/1/4 255/3/4 254/2/4
f 253/1/4 256/4/4 255/3/4
v -2.834822 1.665178 3.333333
v 2.834822 1.665178 3.333333
v 2.754121 1.745879 3.541667
v -2.754121 1.745879 3.541667
f 257/1/1 259/3/1 258/2/1
f 257/1/1 260/4/1 259/3/1
v -2.834822 7.334822 3.333333
v 2.834822 7.334822 3.333333
v 2.754121 7.254121 3.541667
v -2.754121 7.254121 3.541667
f 261/1/2 262/2/2 263/3/2
f 261/1/2 263/3/2 264/4/2
v -2.834822 1.665178 3.333333
v -2.834822 7.334822 3.333333
v -2.754121 7.254121 3.541667
v -2.754121 1.745879 3.541667
f 265/1/3 266/2/3 267/3/3
f 265/1/3 267/3/3 268/4/3
v 2.834822 1.665178 3.333333
v 2.834822 7.334822 3.333333
v 2.754121 7.254121 3.541667
v 2.754121 1.745879 3.541667
f 269/1/4 271/3/4 270/2/4
f 269/1/4 272/4/4 271/3/4
v -2.754121 1.745879 3.541667
v 2.754121 1.745879 3.541667
v 2.675716 1.824284 3.750000
v -2.675716 1.824284 3.750000
f 273/1/1 275/3/1 274/2/1
f 273/1/1 276/4/1 275/3/1
v -2.754121 7.254121 3.541667
v 2.754121 7.254121 3.541667
v 2.675716 7.175716 3.750000
v -2.675716 7.175716 3.750000
f 277/1/2 278/2/2 279/3/2
f 277/1/2 279/3/2 280/4/2
v -2.754121 1.745879 3.541667
v -2.754121 7.254121 3.541667
v -2.675716 7.175716 3.750000
v -2.675716 1.824284 3.750000
f 281/1/3 282/2/3 283/3/3
f 281/1/3 283/3/3 284/4/3
v 2.754121 1.745879 3.541667
v 2.754121 7.254121 3.541667
v 2.675716 7.175716 3.750000
v 2.675716 1.824284 3.750000
f 285/1/4 287/3/4 286/2/4
f 285/1/4 288/4/4 287/3/4
v -2.675716 1.824284 3.750000
v 2.675716 1.824284 3.750000
v 2.599544 1.900457 3.958333
v -2.599544 1.900457 3.958333
f 289/1/1 291/3/1 290/2/1
f 289/1/1 292/4/1 291/3/1
v -2.675716 7.175716 3.750000
v 2.675716 7.175716 3.750000
v 2.599544 7.099544 3.958333
v -2.599544 7.099544 3.958333
f 293/1/2 294/2/2 295/3/2
f 293/1/2 295/3/2 296/4/2
v -2.675716 1.824284 3.750000
v -2.675716 7.175716 3.750000
v -2.599544 7.099544 3.958333
v -2.599544 1.900457 3.958333
f 297/1/3 298/2/3 299/3/3
f 297/1/3 299/3/3 300/4/3
v 2.675716 1.824284 3.750000
v 2.675716 7.175716 3.750000
v 2.599544 7.099544 3.958333
v 2.599544 1.900457 3.958333
f 301/1/4 303/3/4 302/2/4
f 301/1/4 304/4/4 303/3/4
v -2.599544 1.900457 3.958333
v 2.599544 1.900457 3.958333
v 2.525540 1.974461 4.166667
v -2.525540 1.974461 4.166667
f 305/1/1 307/3/1 306/2/1
f 305/1/1 308/4/1 307/3/1
v -2.599544 7.099544 3.958333
v 2.599544 7.099544 3.958333
v 2.525540 7.025540 4.166667
v -2.525540 7.025540 4.166667
f 309/1/2 310/2/2 311/3/2
f 309/1/2 311/3/2 312/4/2
v -2.599544 1.900457 3.958333
v -2.599544 7.099544 3.958333
v -2.525540 7.025540 4.166667
v -2.525540 1.974461 4.166667
f 313/1/3 314/2/3 315/3/3
f 313/1/3 315/3/3 316/4/3
v 2.599544 1.900457 3.958333
v 2.599544 7.099544 3.958333
v 2.525540 7.025540 4.166667
v 2.525540 1.974461 4.166667
f 317/1/4 319/3/4 318/2/4
f 317/1/4 320/4/4 319/3/4
v -2.525540 1.974461 4.166667
v 2.525540 1.974461 4.166667
v 2.453642 2.046358 4.375000
v -2.453642 2.046358 4.375000
f 321/1/1 323/3/1 322/2/1
f 321/1/1 324/4/1 323/3/1
v -2.525540 7.025540 4.166667
v 2.525540 7.025540 4.166667
v 2.453642 6.953642 4.375000
v -2.453642 6.953642 4.375000
f 325/1/2 326/2/2 327/3/2
f 325/1/2 327/3/2 328/4/2
v -2.525540 1.974461 4.166667
v -2.525540 7.025540 4.166667
v -2.453642 6.953642 4.375000
v -2.453642 2.046358 4.375000
f 329/1/3 330/2/3 331/3/3
f 329/1/3 331/3/3 332/4/3
v 2.525540 1.974461 4.166667
v 2.525540 7.025540 4.166667
v 2.453642 6.953642 4.375000
v 2.453642 2.046358 4.375000
f 333/1/4 335/3/4 334/2/4
f 333/1/4 336/4/4 335/3/4
v -2.453642 2.046358 4.375000
v 2.453642 2.046358 4.375000
v 2.383792 2.116208 4.583333
v -2.383792 2.116208 4.583333
f 337/1/1 339/3/1 338/2/1
f 337/1/1 340/4/1 339/3/1
v -2.453642 6.953642 4.375000
v 2.453642 6.953642 4.375000
v 2.383792 6.883792 4.583333
v -2.383792 6.883792 4.583333
f 341/1/2 342/2/2 343/3/2
f 341/1/2 343/3/2 344/4/2
v -2.453642 2.046358 4.375000
v -2.453642 6.953642 4.375000
v -2.383792 6.883792 4.583333
v -2.383792 2.116208 4.583333
f 345/1/3 346/2/3 347/3/3
f 345/1/3 347/3/3 348/4/3
v 2.453642 2.046358 4.375000
v 2.453642 6.953642 4.375000
v 2.383792 6.883792 4.583333
v 2.383792 2.116208 4.583333
f 349/1/4 351/3/4 350/2/4
f 349/1/4 352/4/4 351/3/4
v -2.383792 2.116208 4.583333
v 2.383792 2.116208 4.583333
v 2.315930 2.184070 4.791667
v -2.315930 2.184070 4.791667
f 353/1/1 355/3/1 354/2/1
f 353/1/1 356/4/1 355/3/1
v -2.383792 6.883792 4.583333
v 2.383792 6.883792 4.583333
v 2.315930 6.815930 4.791667
v -2.315930 6.815930 4.791667
f 357/1/2 358/2/2 359/3/2
f 357/1/2 359/3/2 360/4/2
v -2.383792 2.116208 4.583333
v -2.383792 6.883792 4.583333
v -2.315930 6.815930 4.791667
v -2.315930 2.184070 4.791667
f 361/1/3 362/2/3 363/3/3
f 361/1/3 363/3/3 364/4/3
v 2.383792 2.116208 4.583333
v 2.383792 6.883792 4.583333
v 2.315930 6.815930 4.791667
v 2.315930 2.184070 4.791667
f 365/1/4 367/3/4 366/2/4
f 365/1/4 368/4/4 367/3/4
v -2.315930 2.184070 4.791667
v 2.315930 2.184070 4.791667
v 2.250000 2.250000 5.000000
v -2.250000 2.250000 5.000000
f 369/1/1 371/3/1 370/2/1
f 369/1/1 372/4/1 371/3/1
v -2.315930 6.815930 4.791667
v 2.315930 6.815930 4.791667
v 2.250000 6.750000 5.000000
v -2.250000 6.750000 5.000000
f 373/1/2 374/2/2 375/3/2
f 373/1/2 375/3/2 376/4/2
v -2.315930 2.184070 4.791667
v -2.315930 6.815930 4.791667
v -2.250000 6.750000 5.000000
v -2.250000 2.250000 5.000000
f 377/1/3 378/2/3 379/3/3
f 377/1/3 379/3/3 380/4/3
v 2.315930 2.184070 4.791667
v 2.315930 6.815930 4.791667
v 2.250000 6.750000 5.000000
v 2.250000 2.250000 5.000000
f 381/1/4 383/3/4 382/2/4
f 381/1/4 384/4/4 383/3/4
v -2.250000 2.250000 5.000000
v 2.250000 2.250000 5.000000
v 2.185947 2.314053 5.208333
v -2.185947 2.314053 5.208333
f 385/1/1 387/3/1 386/2/1
f 385/1/1 388/4/1 387/3/1
v -2.250000 6.750000 5.000000
v 2.250000 6.750000 5.000000
v 2.185947 6.685947 5.208333
v -2.185947 6.685947 5.208333
f 389/1/2 390/2/2 391/3/2
f 389/1/2 391/3/2 392/4/2
v -2.250000 2.250000 5.000000
v -2.250000 6.750000 5.000000
v -2.185947 6.685947 5.208333
v -2.185947 2.314053 5.208333
f 393/1/3 394/2/3 395/3/3
f 393/1/3 395/3/3 396/4/3
v 2.250000 2.250000 5.000000
v 2.250000 6.750000 5.000000
v 2.185947 6.685947 5.208333
v 2.185947 2.314053 5.208333
f 397/1/4 399/3/4 398/2/4
f 397/1/4 400/4/4 399/3/4
v -2.185947 2.314053 5.208333
v 2.185947 2.314053 5.208333
v 2.123717 2.376283 5.416667
v -2.123717 2.376283 5.416667
f 401/1/1 403/3/1 402/2/1
f 401/1/1 404/4/1 403/3/1
v -2.185947 6.685947 5.208333
v 2.185947 6.685947 5.208333
v 2.123717 6.623717 5.416667
v -2.123717 6.623717 5.416667
f 405/1/2 406/2/2 407/3/2
f 405/1/2 407/3/2 408/4/2
v -2.185947 2.314053 5.208333
v -2.185947 6.685947 5.208333
v -2.123717 6.623717 5.416667
v -2.123717 2.376283 5.416667
f 409/1/3 410/2/3 411/3/3
f 409/1/3 411/3/3 412/4/3
v 2.185947 2.314053 5.208333
v 2.185947 6.685947 5.208333
v 2.123717 6.623717 5.416667
v 2.123717 2.376283 5.416667
f 413/1/4 415/3/4 414/2/4
f 413/1/4 416/4/4 415/3/4
v -2.123717 2.376283 5.416667
v 2.123717 2.376283 5.416667
v 2.063259 2.436741 5.625000
v -2.063259 2.436741 5.625000
f 417/1/1 419/3/1 418/2/1
f 417/1/1 420/4/1 419/3/1
v -2.123717 6.623717 5.416667
v 2.123717 6.623717 5.416667
v 2.063259 6.563259 5.625000
v -2.063259 6.563259 5.625000
f 421/1/2 422/2/2 423/3/2
f 421/1/2 423/3/2 424/4/2
v -2.123717 2.376283 5.416667
v -2.123717 6.623717 5.416667
v -2.063259 6.563259 5.625000
v -2.063259 2.436741 5.625000
f 425/1/3 426/2/3 427/3/3
f 425/1/3 427/3/3 428/4/3
v 2.123717 2.376283 5.416667
v 2.123717 6.623717 5.416667
v 2.063259 6.563259 5.625000
v 2.063259 2.436741 5.625000
f 429/1/4 431/3/4 430/2/4
f 429/1/4 432/4/4 431/3/4
v -2.063259 2.436741 5.625000
v 2.063259 2.436741 5.625000
v 2.004522 2.495478 5.833333
v -2.004522 2.495478 5.833333
f 433/1/1 435/3/1 434/2/1
f 433/1/1 436/4/1 435/3/1
v -2.063259 6.563259 5.625000
v 2.063259 6.563259 5.625000
v 2.004522 6.504522 5.833333
v -2.004522 6.504522 5.833333
f 437/1/2 438/2/2 439/3/2
f 437/1/2 439/3/2 440/4/2
v -2.063259 2.436741 5.625000
v -2.063259 6.563259 5.625000
v -2.004522 6.504522 5.833333
v -2.004522 2.495478 5.833333
f 441/1/3 442/2/3 443/3/3
f 441/1/3 443/3/3 444/4/3
v 2.063259 2.436741 5.625000
v 2.063259 6.563259 5.625000
v 2.004522 6.504522 5.833333
v 2.004522 2.495478 5.833333
f 445/1/4 447/3/4 446/2/4
f 445/1/4 448/4/4 447/3/4
v -2.004522 2.495478 5.833333
v 2.004522 2.495478 5.833333
v 1.947458 2.552543 6.041667
v -1.947458 2.552543 6.041667
f 449/1/1 451/3/1 450/2/1
f 449/1/1 452/4/1 451/3/1
v -2.004522 6.504522 5.833333
v 2.004522 6.504522 5.833333
v 1.947458 6.447458 6.041667
v -1.947458 6.447458 6.041667
f 453/1/2 454/2/2 455/3/2
f 453/1/2 455/3/2 456/4/2
v -2.004522 2.495478 5.833333
v -2.004522 6.504522 5.833333
v -1.947458 6.447458 6.041667
v -1.947458 2.552543 6.041667
f 457/1/3 458/2/3 459/3/3
f 457/1/3 459/3/3 460/4/3
v 2.004522 2.495478 5.833333
v 2.004522 6.504522 5.833333
v 1.947458 6.447458 6.041667
v 1.947458 2.552543 6.041667
f 461/1/4 463/3/4 462/2/4
f 461/1/4 464/4/4 463/3/4
v -1.947458 2.552543 6.041667
v 1.947458 2.552543 6.041667
v 1.892017 2.607983 6.250000
v -1.892017 2.607983 6.250000
f 465/1/1 467/3/1 466/2/1
f 465/1/1 468/4/1 467/3/1
v -1.947458 6.447458 6.041667
v 1.947458 6.447458 6.041667
v 1.892017 6.392017 6.250000
v -1.892017 6.392017 6.250000
f 469/1/2 470/2/2 471/3/2
f 469/1/2 471/3/2 472/4/2
v -1.947458 2.552543 6.041667
v -1.947458 6.447458 6.041667
v -1.892017 6.392017 6.250000
v -1.892017 2.607983 6.250000
f 473/1/3 474/2/3 475/3/3
f 473/1/3 475/3/3 476/4/3
v 1.947458 2.552543 6.041667
v 1.947458 6.447458 6.041667
v 1.892017 6.392017 6.250000
v 1.892017 2.607983 6.250000
f 477/1/4 479/3/4 478/2/4
f 477/1/4 480/4/4 479/3/4
v -1.892017 2.607983 6.250000
v 1.892017 2.607983 6.250000
v 1.838155 2.661845 6.458333
v -1.838155 2.661845 6.458333
f 481/1/1 483/3/1 482/2/1
f 481/1/1 484/4/1 483/3/1
v -1.892017 6.392017 6.250000
v 1.892017 6.392017 6.250000
v 1.838155 6.338155 6.458333
v -1.838155 6.338155 6.458333
f 485/1/2 486/2/2 487/3/2
f 485/1/2 487/3/2 488/4/2
v -1.892017 2.607983 6.250000
v -1.892017 6.392017 6.250000
v -1.838155 6.338155 6.458333
v -1.838155 2.661845 6.458333
f 489/1/3 490/2/3 491/3/3
f 489/1/3 491/3/3 492/4/3
v 1.892017 2.607983 6.250000
v 1.892017 6.392017 6.250000
v 1.838155 6.338155 6.458333
v 1.838155 2.661845 6.458333
f 493/1/4 495/3/4 494/2/4
f 493/1/4 496/4/4 495/3/4
v -1.838155 2.661845 6.458333
v 1.838155 2.661845 6.458333
v 1.785827 2.714174 6.666667
v -1.785827 2.714174 6.666667
f 497/1/1 499/3/1 498/2/1
f 497/1/1 500/4/1 499/3/1
v -1.838155 6.338155 6.458333
v 1.838155 6.338155 6.458333
v 1.785827 6.285827 6.666667
v -1.785827 6.285827 6.666667
f 501/1/2 502/2/2 503/3/2
f 501/1/2 503/3/2 504/4/2
v -1.838155 2.661845 6.458333
v -1.838155 6.338155 6.458333
v -1.785827 6.285827 6.666667
v -1.785827 2.714174 6.666667
f 505/1/3 506/2/3 507/3/3
f 505/1/3 507/3/3 508/4/3
v 1.838155 2.661845 6.458333
v 1.838155 6.338155 6.458333
v 1.785827 6.285827 6.666667
v 1.785827 2.714174 6.666667
f 509/1/4 511/3/4 510/2/4
f 509/1/4 512/4/4 511/3/4
v -1.785827 2.714174 6.666667
v 1.785827 2.714174 6.666667
v 1.734987 2.765013 6.875000
v -1.734987 2.765013 6.875000
f 513/1/1 515/3/1 514/2/1
f 513/1/1 516/4/1 515/3/1
v -1.785827 6.285827 6.666667
v 1.785827 6.285827 6.666667
v 1.734987 6.234987 6.875000
v -1.734987 6.234987 6.875000
f 517/1/2 518/2/2 519/3/2
f 517/1/2 519/3/2 520/4/2
v -1.785827 2.714174 6.666667
v -1.785827 6.285827 6.666667
v -1.734987 6.234987 6.875000
v -1.734987 2.765013 6.875000
f 521/1/3 522/2/3 523/3/3
f 521/1/3 523/3/3 524/4/3
v 1.785827 2.714174 6.666667
v 1.785827 6.285827 6.666667
v 1.734987 6.234987 6.875000
v 1.734987 2.765013 6.875000
f 525/1/4 527/3/4 526/2/4
f 525/1/4 528/4/4 527/3/4
v -1.734987 2.765013 6.875000
v 1.734987 2.765013 6.875000
v 1.685596 2.814404 7.083333
v -1.685596 2.814404 7.083333
f 529/1/1 531/3/1 530/2/1
f 529/1/1 532/4/1 531/3/1
v -1.734987 6.234987 6.875000
v 1.734987 6.234987 6.875000
v 1.685596 6.185596 7.083333
v -1.685596 6.185596 7.083333
f 533/1/2 534/2/2 535/3/2
f 533/1/2 535/3/2 536/4/2
v -1.734987 2.765013 6.875000
v -1.734987 6.234987 6.875000
v -1.685596 6.185596 7.083333
v -1.685596 2.814404 7.083333
f 537/1/3 538/2/3 539/3/3
f 537/1/3 539/3/3 540/4/3
v 1.734987 2.765013 6.875000
v 1.734987 6.234987 6.875000
v 1.685596 6.185596 7.083333
v 1.685596 2.814404 7.083333
f 541/1/4 543/3/4 542/2/4
f 541/1/4 544/4/4 543/3/4
v -1.685596 2.814404 7.083333
v 1.685596 2.814404 7.083333
v 1.637610 2.862390 7.291667
v -1.637610 2.862390 7.291667
f 545/1/1 547/3/1 546/2/1
f 545/1/1 548/4/1 547/3/1
v -1.685596 6.185596 7.083333
v 1.685596 6.185596 7.083333
v 1.637610 6.137610 7.291667
v -1.637610 6.137610 7.291667
f 549/1/2 550/2/2 551/3/2
f 549/1/2 551/3/2 552/4/2
v -1.685596 2.814404 7.083333
v -1.685596 6.185596 7.083333
v -1.637610 6.137610 7.291667
v -1.637610 2.862390 7.291667
f 553/1/3 554/2/3 555/3/3
f 553/1/3 555/3/3 556/4/3
v 1.685596 2.814404 7.083333
v 1.685596 6.185596 7.083333
v 1.637610 6.137610 7.291667
v 1.637610 2.862390 7.291667
f 557/1/4 559/3/4 558/2/4
f 557/1/4 560/4/4 559/3/4
v -1.637610 2.862390 7.291667
v 1.637610 2.862390 7.291667
v 1.590990 2.909010 7.500000
v -1.590990 2.909010 7.500000
f 561/1/1 563/3/1 562/2/1
f 561/1/1 564/4/1 563/3/1
v -1.637610 6.137610 7.291667
v 1.637610 6.137610 7.291667
v 1.590990 6.090990 7.500000
v -1.590990 6.090990 7.500000
f 565/1/2 566/2/2 567/3/2
f 565/1/2 567/3/2 568/4/2
v -1.637610 2.862390 7.291667
v -1.637610 6.137610 7.291667
v -1.590990 6.090990 7.500000
v -1.590990 2.909010 7.500000
f 569/1/3 570/2/3 571/3/3
f 569/1/3 571/3/3 572/4/3
v 1.637610 2.862390 7.291667
v 1.637610 6.137610 7.291667
v 1.590990 6.090990 7.500000
v 1.590990 2.909010 7.500000
f 573/1/4 575/3/4 574/2/4
f 573/1/4 576/4/4 575/3/4
v -1.590990 2.909010 7.500000
v 1.590990 2.909010 7.500000
v 1.545698 2.954303 7.708333
v -1.545698 2.954303 7.708333
f 577/1/1 579/3/1 578/2/1
f 577/1/1 580/4/1 579/3/1
v -1.590990 6.090990 7.500000
v 1.590990 6.090990 7.500000
v 1.545698 6.045698 7.708333
v -1.545698 6.045698 7.708333
f 581/1/2 582/2/2 583/3/2
f 581/1/2 583/3/2 584/4/2
v -1.590990 2.909010 7.500000
v -1.590990 6.090990 7.500000
v -1.545698 6.045698 7.708333
v -1.545698 2.954303 7.708333
f 585/1/3 586/2/3 587/3/3
f 585/1/3 587/3/3 588/4/3
v 1.590990 2.909010 7.500000
v 1.590990 6.090990 7.500000
v 1.545698 6.045698 7.708333
v 1.545698 2.954303 7.708333
f 589/1/4 591/3/4 590/2/4
f 589/1/4 592/4/4 591/3/4
v -1.545698 2.954303 7.708333
v 1.545698 2.954303 7.708333
v 1.501695 2.998305 7.916667
v -1.501695 2.998305 7.916667
f 593/1/1 595/3/1 594/2/1
f 593/1/1 596/4/1 595/3/1
v -1.545698 6.045698 7.708333
v 1.545698 6.045698 7.708333
v 1.501695 6.001695 7.916667
v -1.501695 6.001695 7.916667
f 597/1/2 598/2/2 599/3/2
f 597/1/2 599/3/2 600/4/2
v -1.545698 2.954303 7.708333
v -1.545698 6.045698 7.708333
v -1.501695 6.001695 7.916667
v -1.501695 2.998305 7.916667
f 601/1/3 602/2/3 603/3/3
f 601/1/3 603/3/3 604/4/3
v 1.545698 2.954303 7.708333
v 1.545698 6.045698 7.708333
v 1.501695 6.001695 7.916667
v 1.501695 2.998305 7.916667
f 605/1/4 607/3/4 606/2/4
f 605/1/4 608/4/4 607/3/4
v -1.501695 2.998305 7.916667
v 1.501695 2.998305 7.916667
v 1.458944 3.041056 8.125000
v -1.458944 3.041056 8.125000
f 609/1/1 611/3/1 610/2/1
f 609/1/1 612/4/1 611/3/1
v -1.501695 6.001695 7.916667
v 1.501695 6.001695 7.916667
v 1.458944 5.958944 8.125000
v -1.458944 5.958944 8.125000
f 613/1/2 614/2/2 615/3/2
f 613/1/2 615/3/2 616/4/2
v -1.501695 2.998305 7.916667
v -1.501695 6.001695 7.916667
v -1.458944 5.958944 8.125000
v -1.458944 3.041056 8.125000
f 617/1/3 618/2/3 619/3/3
f 617/1/3 619/3/3 620/4/3
v 1.501695 2.998305 7.916667
v 1.501695 6.001695 7.916667
v 1.458944 5.958944 8.125000
v 1.458944 3.041056 8.125000
f 621/1/4 623/3/4 622/2/4
f 621/1/4 624/4/4 623/3/4
v -1.458944 3.041056 8.125000
v 1.458944 3.041056 8.125000
v 1.417412 3.082589 8.333333
v -1.417412 3.082589 8.333333
f 625/1/1 627/3/1 626/2/1
f 625/1/1 628/4/1 627/3/1
v -1.458944 5.958944 8.125000
v 1.458944 5.958944 8.125000
v 1.417412 5.917412 8.333333
v -1.417412 5.917412 8.333333
f 629/1/2 630/2/2 631/3/2
f 629/1/2 631/3/2 632/4/2
v -1.458944 3.041056 8.125000
v -1.458944 5.958944 8.125000
v -1.417412 5.917412 8.333333
v -1.417412 3.082589 8.333333
f 633/1/3 634/2/3 635/3/3
f 633/1/3 635/3/3 636/4/3
v 1.458944 3.041056 8.125000
v 1.458944 5.958944 8.125000
v 1.417412 5.917412 8.333333
v 1.417412 3.082589 8.333333
f 637/1/4 639/3/4 638/2/4
f 637/1/4 640/4/4 639/3/4
v -1.417412 3.082589 8.333333
v 1.417412 3.082589 8.333333
v 1.377060 3.122940 8.541667
v -1.377060 3.122940 8.541667
f 641/1/1 643/3/1 642/2/1
f 641/1/1 644/4/1 643/3/1
v -1.417412 5.917412 8.333333
v 1.417412 5.917412 8.333333
v 1.377060 5.877060 8.541667
v -1.377060 5.877060 8.541667
f 645/1/2 646/2/2 647/3/2
f 645/1/2 647/3/2 648/4/2
v -1.417412 3.082589 8.333333
v -1.417412 5.917412 8.333333
v -1.377060 5.877060 8.541667
v -1.377060 3.122940 8.541667
f 649/1/3 650/2/3 651/3/3
f 649/1/3 651/3/3 652/4/3
v 1.417412 3.082589 8.333333
v 1.417412 5.917412 8.333333
v 1.377060 5.877060 8.541667
v 1.377060 3.122940 8.541667
f 653/1/4 655/3/4 654/2/4
f 653/1/4 656/4/4 655/3/4
v -1.377060 3.122940 8.541667
v 1.377060 3.122940 8.541667
v 1.337858 3.162142 8.750000
v -1.337858 3.162142 8.750000
f 657/1/1 659/3/1 658/2/1
f 657/1/1 660/4/1 659/3/1
v -1.377060 5.877060 8.541667
v 1.377060 5.877060 8.541667
v 1.337858 5.837858 8.750000
v -1.337858 5.837858 8.750000
f 661/1/2 662/2/2 663/3/2
f 661/1/2 663/3/2 664/4/2
v -1.377060 3.122940 8.541667
v -1.377060 5.877060 8.541667
v -1.337858 5.837858 8.750000
v -1.337858 3.162142 8.750000
f 665/1/3 666/2/3 667/3/3
f 665/1/3 667/3/3 668/4/3
v 1.377060 3.122940 8.541667
v 1.377060 5.877060 8.541667
v 1.337858 5.837858 8.750000
v 1.337858 3.162142 8.750000
f 669/1/4 671/3/4 670/2/4
f 669/1/4 672/4/4 671/3/4
v -1.337858 3.162142 8.750000
v 1.337858 3.162142 8.750000
v 1.299772 3.200228 8.958333
v -1.299772 3.200228 8.958333
f 673/1/1 675/3/1 674/2/1
f 673/1/1 676/4/1 675/3/1
v -1.337858 5.837858 8.750000
v 1.337858 5.837858 8.750000
v 1.299772 5.799772 8.958333
v -1.299772 5.799772 8.958333
f 677/1/2 678/2/2 679/3/2
f 677/1/2 679/3/2 680/4/2
v -1.337858 3.162142 8.750000
v -1.337858 5.837858 8.750000
v -1.299772 5.799772 8.958333
v -1.299772 3.200228 8.958333
f 681/1/3 682/2/3 683/3/3
f 681/1/3 683/3/3 684/4/3
v 1.337858 3.162142 8.750000
v 1.337858 5.837858 8.750000
v 1.299772 5.799772 8.958333
v 1.299772 3.200228 8.958333
f 685/1/4 687/3/4 686/2/4
f 685/1/4 688/4/4 687/3/4
v -1.299772 3.200228 8.958333
v 1.299772 3.200228 8.958333
v 1.262770 3.237230 9.166667
v -1.262770 3.237230 9.166667
f 689/1/1 691/3/1 690/2/1
f 689/1/1 692/4/1 691/3/1
v -1.299772 5.799772 8.958333
v 1.299772 5.799772 8.958333
v 1.262770 5.762770 9.166667
v -1.262770 5.762770 9.166667
f 693/1/2 694/2/2 695/3/2
f 693/1/2 695/3/2 696/4/2
v -1.299772 3.200228 8.958333
v -1.299772 5.799772 8.958333
v -1.262770 5.762770 9.166667
v -1.262770 3.237230 9.166667
f 697/1/3 698/2/3 699/3/3
f 697/1/3 699/3/3 700/4/3
v 1.299772 3.200228 8.958333
v 1.299772 5.799772 8.958333
v 1.262770 5.762770 9.166667
v 1.262770 3.237230 9.166667
f 701/1/4 703/3/4 702/2/4
f 701/1/4 704/4/4 703/3/4
v -1.262770 3.237230 9.166667
v 1.262770 3.237230 9.166667
v 1.226822 3.273179 9.375000
v -1.226822 3.273179 9.375000
f 705/1/1 707/3/1 706/2/1
f 705/1/1 708/4/1 707/3/1
v -1.262770 5.762770 9.166667
v 1.262770 5.762770 9.166667
v 1.226822 5.726822 9.375000
v -1.226822 5.726822 9.375000
f 709/1/2 710/2/2 711/3/2
f 709/1/2 711/3/2 712/4/2
v -1.262770 3.237230 9.166667
v -1.262770 5.762770 9.166667
v -1.226822 5.726822 9.375000
v -1.226822 3.273179 9.375000
f 713/1/3 714/2/3 715/3/3
f 713/1/3 715/3/3 716/4/3
v 1.262770 3.237230 9.166667
v 1.262770 5.762770 9.166667
v 1.226822 5.726822 9.375000
v 1.226822 3.273179 9.375000
f 717/1/4 719/3/4 718/2/4
f 717/1/4 720/4/4 719/3/4
v -1.226822 3.273179 9.375000
v 1.226822 3.273179 9.375000
v 1.191896 3.308104 9.583333
v -1.191896 3.308104 9.583333
f 721/1/1 723/3/1 722/2/1
f 721/1/1 724/4/1 723/3/1
v -1.226822 5.726822 9.375000
v 1.226822 5.726822 9.375000
v 1.191896 5.691896 9.583333
v -1.191896 5.691896 9.583333
f 725/1/2 726/2/2 727/3/2
f 725/1/2 727/3/2 728/4/2
v -1.226822 3.273179 9.375000
v -1.226822 5.726822 9.375000
v -1.191896 5.691896 9.583333
v -1.191896 3.308104 9.583333
f 729/1/3 730/2/3 731/3/3
f 729/1/3 731/3/3 732/4/3
v 1.226822 3.273179 9.375000
v 1.226822 5.726822 9.375000
v 1.191896 5.691896 9.583333
v 1.191896 3.308104 9.583333
f 733/1/4 735/3/4 734/2/4
f 733/1/4 736/4/4 735/3/4
v -1.191896 3.308104 9.583333
v 1.191896 3.308104 9.583333
v 1.157965 3.342035 9.791667
v -1.157965 3.342035 9.791667
f 737/1/1 739/3/1 738/2/1
f 737/1/1 740/4/1 739/3/1
v -1.191896 5.691896 9.583333
v 1.191896 5.691896 9.583333
v 1.157965 5.657965 9.791667
v -1.157965 5.657965 9.791667
f 741/1/2 742/2/2 743/3/2
f 741/1/2 743/3/2 744/4/2
v -1.191896 3.308104 9.583333
v -1.191896 5.691896 9.583333
v -1.157965 5.657965 9.791667
v -1.157965 3.342035 9.791667
f 745/1/3 746/2/3 747/3/3
f 745/1/3 747/3/3 748/4/3
v 1.191896 3.308104 9.583333
v 1.191896 5.691896 9.583333
v 1.157965 5.657965 9.791667
v 1.157965 3.342035 9.791667
f 749/1/4 751/3/4 750/2/4
f 749/1/4 752/4/4 751/3/4
v -1.157965 3.342035 9.791667
v 1.157965 3.342035 9.791667
v 1.125000 3.375000 10.000000
v -1.125000 3.375000 10.000000
f 753/1/1 755/3/1 754/2/1
f 753/1/1 756/4/1 755/3/1
v -1.157965 5.657965 9.791667
v 1.157965 5.657965 9.791667
v 1.125000 5.625000 10.000000
v -1.125000 5.625000 10.000000
f 757/1/2 758/2/2 759/3/2
f 757/1/2 759/3/2 760/4/2
v -1.157965 3.342035 9.791667
v -1.157965 5.657965 9.791667
v -1.125000 5.625000 10.000000
v -1.125000 3.375000 10.000000
f 761/1/3 762/2/3 763/3/3
f 761/1/3 763/3/3 764/4/3
v 1.157965 3.342035 9.791667
v 1.157965 5.657965 9.791667
v 1.125000 5.625000 10.000000
v 1.125000 3.375000 10.000000
f 765/1/4 767/3/4 766/2/4
f 765/1/4 768/4/4 767/3/4
