# Cubic 8x5x8 room shell with 2.4x3.4 doorways on adjacent west/north walls.
# Ten closed box sections form a concave static collision/render mesh.
vt 0 0
vt 1 0
vt 1 1
vt 0 1
vn 0 0 -1
vn 0 0 1
vn -1 0 0
vn 1 0 0
vn 0 -1 0
vn 0 1 0
g floor
v -4.0000 -0.3000 -4.0000
v 4.0000 -0.3000 -4.0000
v 4.0000 0.0000 -4.0000
v -4.0000 0.0000 -4.0000
v -4.0000 -0.3000 4.0000
v 4.0000 -0.3000 4.0000
v 4.0000 0.0000 4.0000
v -4.0000 0.0000 4.0000
f 1/1/1 4/2/1 3/3/1
f 1/1/1 3/2/1 2/3/1
f 5/1/2 6/2/2 7/3/2
f 5/1/2 7/2/2 8/3/2
f 1/1/3 5/2/3 8/3/3
f 1/1/3 8/2/3 4/3/3
f 2/1/4 3/2/4 7/3/4
f 2/1/4 7/2/4 6/3/4
f 1/1/5 2/2/5 6/3/5
f 1/1/5 6/2/5 5/3/5
f 4/1/6 8/2/6 7/3/6
f 4/1/6 7/2/6 3/3/6
g ceiling
v -4.0000 5.0000 -4.0000
v 4.0000 5.0000 -4.0000
v 4.0000 5.3000 -4.0000
v -4.0000 5.3000 -4.0000
v -4.0000 5.0000 4.0000
v 4.0000 5.0000 4.0000
v 4.0000 5.3000 4.0000
v -4.0000 5.3000 4.0000
f 9/1/1 12/2/1 11/3/1
f 9/1/1 11/2/1 10/3/1
f 13/1/2 14/2/2 15/3/2
f 13/1/2 15/2/2 16/3/2
f 9/1/3 13/2/3 16/3/3
f 9/1/3 16/2/3 12/3/3
f 10/1/4 11/2/4 15/3/4
f 10/1/4 15/2/4 14/3/4
f 9/1/5 10/2/5 14/3/5
f 9/1/5 14/2/5 13/3/5
f 12/1/6 16/2/6 15/3/6
f 12/1/6 15/2/6 11/3/6
g east_wall
v 4.0000 0.0000 -4.0000
v 4.3000 0.0000 -4.0000
v 4.3000 5.0000 -4.0000
v 4.0000 5.0000 -4.0000
v 4.0000 0.0000 4.0000
v 4.3000 0.0000 4.0000
v 4.3000 5.0000 4.0000
v 4.0000 5.0000 4.0000
f 17/1/1 20/2/1 19/3/1
f 17/1/1 19/2/1 18/3/1
f 21/1/2 22/2/2 23/3/2
f 21/1/2 23/2/2 24/3/2
f 17/1/3 21/2/3 24/3/3
f 17/1/3 24/2/3 20/3/3
f 18/1/4 19/2/4 23/3/4
f 18/1/4 23/2/4 22/3/4
f 17/1/5 18/2/5 22/3/5
f 17/1/5 22/2/5 21/3/5
f 20/1/6 24/2/6 23/3/6
f 20/1/6 23/2/6 19/3/6
g south_wall
v -4.0000 0.0000 -4.3000
v 4.0000 0.0000 -4.3000
v 4.0000 5.0000 -4.3000
v -4.0000 5.0000 -4.3000
v -4.0000 0.0000 -4.0000
v 4.0000 0.0000 -4.0000
v 4.0000 5.0000 -4.0000
v -4.0000 5.0000 -4.0000
f 25/1/1 28/2/1 27/3/1
f 25/1/1 27/2/1 26/3/1
f 29/1/2 30/2/2 31/3/2
f 29/1/2 31/2/2 32/3/2
f 25/1/3 29/2/3 32/3/3
f 25/1/3 32/2/3 28/3/3
f 26/1/4 27/2/4 31/3/4
f 26/1/4 31/2/4 30/3/4
f 25/1/5 26/2/5 30/3/5
f 25/1/5 30/2/5 29/3/5
f 28/1/6 32/2/6 31/3/6
f 28/1/6 31/2/6 27/3/6
g north_left
v -4.0000 0.0000 4.0000
v -1.2000 0.0000 4.0000
v -1.2000 5.0000 4.0000
v -4.0000 5.0000 4.0000
v -4.0000 0.0000 4.3000
v -1.2000 0.0000 4.3000
v -1.2000 5.0000 4.3000
v -4.0000 5.0000 4.3000
f 33/1/1 36/2/1 35/3/1
f 33/1/1 35/2/1 34/3/1
f 37/1/2 38/2/2 39/3/2
f 37/1/2 39/2/2 40/3/2
f 33/1/3 37/2/3 40/3/3
f 33/1/3 40/2/3 36/3/3
f 34/1/4 35/2/4 39/3/4
f 34/1/4 39/2/4 38/3/4
f 33/1/5 34/2/5 38/3/5
f 33/1/5 38/2/5 37/3/5
f 36/1/6 40/2/6 39/3/6
f 36/1/6 39/2/6 35/3/6
g north_right
v 1.2000 0.0000 4.0000
v 4.0000 0.0000 4.0000
v 4.0000 5.0000 4.0000
v 1.2000 5.0000 4.0000
v 1.2000 0.0000 4.3000
v 4.0000 0.0000 4.3000
v 4.0000 5.0000 4.3000
v 1.2000 5.0000 4.3000
f 41/1/1 44/2/1 43/3/1
f 41/1/1 43/2/1 42/3/1
f 45/1/2 46/2/2 47/3/2
f 45/1/2 47/2/2 48/3/2
f 41/1/3 45/2/3 48/3/3
f 41/1/3 48/2/3 44/3/3
f 42/1/4 43/2/4 47/3/4
f 42/1/4 47/2/4 46/3/4
f 41/1/5 42/2/5 46/3/5
f 41/1/5 46/2/5 45/3/5
f 44/1/6 48/2/6 47/3/6
f 44/1/6 47/2/6 43/3/6
g north_header
v -1.2000 3.4000 4.0000
v 1.2000 3.4000 4.0000
v 1.2000 5.0000 4.0000
v -1.2000 5.0000 4.0000
v -1.2000 3.4000 4.3000
v 1.2000 3.4000 4.3000
v 1.2000 5.0000 4.3000
v -1.2000 5.0000 4.3000
f 49/1/1 52/2/1 51/3/1
f 49/1/1 51/2/1 50/3/1
f 53/1/2 54/2/2 55/3/2
f 53/1/2 55/2/2 56/3/2
f 49/1/3 53/2/3 56/3/3
f 49/1/3 56/2/3 52/3/3
f 50/1/4 51/2/4 55/3/4
f 50/1/4 55/2/4 54/3/4
f 49/1/5 50/2/5 54/3/5
f 49/1/5 54/2/5 53/3/5
f 52/1/6 56/2/6 55/3/6
f 52/1/6 55/2/6 51/3/6
g west_back
v -4.3000 0.0000 -4.0000
v -4.0000 0.0000 -4.0000
v -4.0000 5.0000 -4.0000
v -4.3000 5.0000 -4.0000
v -4.3000 0.0000 -1.2000
v -4.0000 0.0000 -1.2000
v -4.0000 5.0000 -1.2000
v -4.3000 5.0000 -1.2000
f 57/1/1 60/2/1 59/3/1
f 57/1/1 59/2/1 58/3/1
f 61/1/2 62/2/2 63/3/2
f 61/1/2 63/2/2 64/3/2
f 57/1/3 61/2/3 64/3/3
f 57/1/3 64/2/3 60/3/3
f 58/1/4 59/2/4 63/3/4
f 58/1/4 63/2/4 62/3/4
f 57/1/5 58/2/5 62/3/5
f 57/1/5 62/2/5 61/3/5
f 60/1/6 64/2/6 63/3/6
f 60/1/6 63/2/6 59/3/6
g west_front
v -4.3000 0.0000 1.2000
v -4.0000 0.0000 1.2000
v -4.0000 5.0000 1.2000
v -4.3000 5.0000 1.2000
v -4.3000 0.0000 4.0000
v -4.0000 0.0000 4.0000
v -4.0000 5.0000 4.0000
v -4.3000 5.0000 4.0000
f 65/1/1 68/2/1 67/3/1
f 65/1/1 67/2/1 66/3/1
f 69/1/2 70/2/2 71/3/2
f 69/1/2 71/2/2 72/3/2
f 65/1/3 69/2/3 72/3/3
f 65/1/3 72/2/3 68/3/3
f 66/1/4 67/2/4 71/3/4
f 66/1/4 71/2/4 70/3/4
f 65/1/5 66/2/5 70/3/5
f 65/1/5 70/2/5 69/3/5
f 68/1/6 72/2/6 71/3/6
f 68/1/6 71/2/6 67/3/6
g west_header
v -4.3000 3.4000 -1.2000
v -4.0000 3.4000 -1.2000
v -4.0000 5.0000 -1.2000
v -4.3000 5.0000 -1.2000
v -4.3000 3.4000 1.2000
v -4.0000 3.4000 1.2000
v -4.0000 5.0000 1.2000
v -4.3000 5.0000 1.2000
f 73/1/1 76/2/1 75/3/1
f 73/1/1 75/2/1 74/3/1
f 77/1/2 78/2/2 79/3/2
f 77/1/2 79/2/2 80/3/2
f 73/1/3 77/2/3 80/3/3
f 73/1/3 80/2/3 76/3/3
f 74/1/4 75/2/4 79/3/4
f 74/1/4 79/2/4 78/3/4
f 73/1/5 74/2/5 78/3/5
f 73/1/5 78/2/5 77/3/5
f 76/1/6 80/2/6 79/3/6
f 76/1/6 79/2/6 75/3/6
