# Built-in cone primitive. Unit-sized and centered at the origin.
v 0.500000 -0.500000 0.000000
v 0.433013 -0.500000 0.250000
v 0.000000 0.500000 0.000000
v 0.000000 -0.500000 0.000000
v 0.500000 -0.500000 0.000000
v 0.433013 -0.500000 0.250000
v 0.433013 -0.500000 0.250000
v 0.250000 -0.500000 0.433013
v 0.000000 0.500000 0.000000
v 0.000000 -0.500000 0.000000
v 0.433013 -0.500000 0.250000
v 0.250000 -0.500000 0.433013
v 0.250000 -0.500000 0.433013
v 0.000000 -0.500000 0.500000
v 0.000000 0.500000 0.000000
v 0.000000 -0.500000 0.000000
v 0.250000 -0.500000 0.433013
v 0.000000 -0.500000 0.500000
v 0.000000 -0.500000 0.500000
v -0.250000 -0.500000 0.433013
v 0.000000 0.500000 0.000000
v 0.000000 -0.500000 0.000000
v 0.000000 -0.500000 0.500000
v -0.250000 -0.500000 0.433013
v -0.250000 -0.500000 0.433013
v -0.433013 -0.500000 0.250000
v 0.000000 0.500000 0.000000
v 0.000000 -0.500000 0.000000
v -0.250000 -0.500000 0.433013
v -0.433013 -0.500000 0.250000
v -0.433013 -0.500000 0.250000
v -0.500000 -0.500000 0.000000
v 0.000000 0.500000 0.000000
v 0.000000 -0.500000 0.000000
v -0.433013 -0.500000 0.250000
v -0.500000 -0.500000 0.000000
v -0.500000 -0.500000 0.000000
v -0.433013 -0.500000 -0.250000
v 0.000000 0.500000 0.000000
v 0.000000 -0.500000 0.000000
v -0.500000 -0.500000 0.000000
v -0.433013 -0.500000 -0.250000
v -0.433013 -0.500000 -0.250000
v -0.250000 -0.500000 -0.433013
v 0.000000 0.500000 0.000000
v 0.000000 -0.500000 0.000000
v -0.433013 -0.500000 -0.250000
v -0.250000 -0.500000 -0.433013
v -0.250000 -0.500000 -0.433013
v 0.000000 -0.500000 -0.500000
v 0.000000 0.500000 0.000000
v 0.000000 -0.500000 0.000000
v -0.250000 -0.500000 -0.433013
v 0.000000 -0.500000 -0.500000
v 0.000000 -0.500000 -0.500000
v 0.250000 -0.500000 -0.433013
v 0.000000 0.500000 0.000000
v 0.000000 -0.500000 0.000000
v 0.000000 -0.500000 -0.500000
v 0.250000 -0.500000 -0.433013
v 0.250000 -0.500000 -0.433013
v 0.433013 -0.500000 -0.250000
v 0.000000 0.500000 0.000000
v 0.000000 -0.500000 0.000000
v 0.250000 -0.500000 -0.433013
v 0.433013 -0.500000 -0.250000
v 0.433013 -0.500000 -0.250000
v 0.500000 -0.500000 0.000000
v 0.000000 0.500000 0.000000
v 0.000000 -0.500000 0.000000
v 0.433013 -0.500000 -0.250000
v 0.500000 -0.500000 0.000000
vt 0.000000 0.000000
vt 0.083333 0.000000
vt 0.041667 1.000000
vt 0.000000 0.000000
vt 0.500000 1.000000
vt 1.000000 0.000000
vt 0.083333 0.000000
vt 0.166667 0.000000
vt 0.125000 1.000000
vt 0.000000 0.000000
vt 0.500000 1.000000
vt 1.000000 0.000000
vt 0.166667 0.000000
vt 0.250000 0.000000
vt 0.208333 1.000000
vt 0.000000 0.000000
vt 0.500000 1.000000
vt 1.000000 0.000000
vt 0.250000 0.000000
vt 0.333333 0.000000
vt 0.291667 1.000000
vt 0.000000 0.000000
vt 0.500000 1.000000
vt 1.000000 0.000000
vt 0.333333 0.000000
vt 0.416667 0.000000
vt 0.375000 1.000000
vt 0.000000 0.000000
vt 0.500000 1.000000
vt 1.000000 0.000000
vt 0.416667 0.000000
vt 0.500000 0.000000
vt 0.458333 1.000000
vt 0.000000 0.000000
vt 0.500000 1.000000
vt 1.000000 0.000000
vt 0.500000 0.000000
vt 0.583333 0.000000
vt 0.541667 1.000000
vt 0.000000 0.000000
vt 0.500000 1.000000
vt 1.000000 0.000000
vt 0.583333 0.000000
vt 0.666667 0.000000
vt 0.625000 1.000000
vt 0.000000 0.000000
vt 0.500000 1.000000
vt 1.000000 0.000000
vt 0.666667 0.000000
vt 0.750000 0.000000
vt 0.708333 1.000000
vt 0.000000 0.000000
vt 0.500000 1.000000
vt 1.000000 0.000000
vt 0.750000 0.000000
vt 0.833333 0.000000
vt 0.791667 1.000000
vt 0.000000 0.000000
vt 0.500000 1.000000
vt 1.000000 0.000000
vt 0.833333 0.000000
vt 0.916667 0.000000
vt 0.875000 1.000000
vt 0.000000 0.000000
vt 0.500000 1.000000
vt 1.000000 0.000000
vt 0.916667 0.000000
vt 1.000000 0.000000
vt 0.958333 1.000000
vt 0.000000 0.000000
vt 0.500000 1.000000
vt 1.000000 0.000000
vn 0.894427 0.447214 0.000000
vn 0.774597 0.447214 0.447214
vn 0.863950 0.447214 0.231495
vn 0.000000 -1.000000 0.000000
vn 0.000000 -1.000000 0.000000
vn 0.000000 -1.000000 0.000000
vn 0.774597 0.447214 0.447214
vn 0.447214 0.447214 0.774597
vn 0.632456 0.447214 0.632456
vn 0.000000 -1.000000 0.000000
vn 0.000000 -1.000000 0.000000
vn 0.000000 -1.000000 0.000000
vn 0.447214 0.447214 0.774597
vn 0.000000 0.447214 0.894427
vn 0.231495 0.447214 0.863950
vn 0.000000 -1.000000 0.000000
vn 0.000000 -1.000000 0.000000
vn 0.000000 -1.000000 0.000000
vn 0.000000 0.447214 0.894427
vn -0.447214 0.447214 0.774597
vn -0.231495 0.447214 0.863950
vn 0.000000 -1.000000 0.000000
vn 0.000000 -1.000000 0.000000
vn 0.000000 -1.000000 0.000000
vn -0.447214 0.447214 0.774597
vn -0.774597 0.447214 0.447214
vn -0.632456 0.447214 0.632456
vn 0.000000 -1.000000 0.000000
vn 0.000000 -1.000000 0.000000
vn 0.000000 -1.000000 0.000000
vn -0.774597 0.447214 0.447214
vn -0.894427 0.447214 0.000000
vn -0.863950 0.447214 0.231495
vn 0.000000 -1.000000 0.000000
vn 0.000000 -1.000000 0.000000
vn 0.000000 -1.000000 0.000000
vn -0.894427 0.447214 0.000000
vn -0.774597 0.447214 -0.447214
vn -0.863950 0.447214 -0.231495
vn 0.000000 -1.000000 0.000000
vn 0.000000 -1.000000 0.000000
vn 0.000000 -1.000000 0.000000
vn -0.774597 0.447214 -0.447214
vn -0.447214 0.447214 -0.774597
vn -0.632456 0.447214 -0.632456
vn 0.000000 -1.000000 0.000000
vn 0.000000 -1.000000 0.000000
vn 0.000000 -1.000000 0.000000
vn -0.447214 0.447214 -0.774597
vn 0.000000 0.447214 -0.894427
vn -0.231495 0.447214 -0.863950
vn 0.000000 -1.000000 0.000000
vn 0.000000 -1.000000 0.000000
vn 0.000000 -1.000000 0.000000
vn 0.000000 0.447214 -0.894427
vn 0.447214 0.447214 -0.774597
vn 0.231495 0.447214 -0.863950
vn 0.000000 -1.000000 0.000000
vn 0.000000 -1.000000 0.000000
vn 0.000000 -1.000000 0.000000
vn 0.447214 0.447214 -0.774597
vn 0.774597 0.447214 -0.447214
vn 0.632456 0.447214 -0.632456
vn 0.000000 -1.000000 0.000000
vn 0.000000 -1.000000 0.000000
vn 0.000000 -1.000000 0.000000
vn 0.774597 0.447214 -0.447214
vn 0.894427 0.447214 0.000000
vn 0.863950 0.447214 -0.231495
vn 0.000000 -1.000000 0.000000
vn 0.000000 -1.000000 0.000000
vn 0.000000 -1.000000 0.000000
f 1/1/1 3/3/3 2/2/2
f 4/4/4 5/5/5 6/6/6
f 7/7/7 9/9/9 8/8/8
f 10/10/10 11/11/11 12/12/12
f 13/13/13 15/15/15 14/14/14
f 16/16/16 17/17/17 18/18/18
f 19/19/19 21/21/21 20/20/20
f 22/22/22 23/23/23 24/24/24
f 25/25/25 27/27/27 26/26/26
f 28/28/28 29/29/29 30/30/30
f 31/31/31 33/33/33 32/32/32
f 34/34/34 35/35/35 36/36/36
f 37/37/37 39/39/39 38/38/38
f 40/40/40 41/41/41 42/42/42
f 43/43/43 45/45/45 44/44/44
f 46/46/46 47/47/47 48/48/48
f 49/49/49 51/51/51 50/50/50
f 52/52/52 53/53/53 54/54/54
f 55/55/55 57/57/57 56/56/56
f 58/58/58 59/59/59 60/60/60
f 61/61/61 63/63/63 62/62/62
f 64/64/64 65/65/65 66/66/66
f 67/67/67 69/69/69 68/68/68
f 70/70/70 71/71/71 72/72/72
