# Built-in torus primitive. Unit-sized and centered at the origin.
v 0.500000 0.000000 0.000000
v 0.433013 0.000000 0.250000
v 0.250000 0.000000 0.433013
v 0.000000 0.000000 0.500000
v -0.250000 0.000000 0.433013
v -0.433013 0.000000 0.250000
v -0.500000 0.000000 0.000000
v -0.433013 0.000000 -0.250000
v -0.250000 0.000000 -0.433013
v 0.000000 0.000000 -0.500000
v 0.250000 0.000000 -0.433013
v 0.433013 0.000000 -0.250000
v 0.500000 0.000000 0.000000
v 0.456066 0.106066 0.000000
v 0.394965 0.106066 0.228033
v 0.228033 0.106066 0.394965
v 0.000000 0.106066 0.456066
v -0.228033 0.106066 0.394965
v -0.394965 0.106066 0.228033
v -0.456066 0.106066 0.000000
v -0.394965 0.106066 -0.228033
v -0.228033 0.106066 -0.394965
v 0.000000 0.106066 -0.456066
v 0.228033 0.106066 -0.394965
v 0.394965 0.106066 -0.228033
v 0.456066 0.106066 0.000000
v 0.350000 0.150000 0.000000
v 0.303109 0.150000 0.175000
v 0.175000 0.150000 0.303109
v 0.000000 0.150000 0.350000
v -0.175000 0.150000 0.303109
v -0.303109 0.150000 0.175000
v -0.350000 0.150000 0.000000
v -0.303109 0.150000 -0.175000
v -0.175000 0.150000 -0.303109
v 0.000000 0.150000 -0.350000
v 0.175000 0.150000 -0.303109
v 0.303109 0.150000 -0.175000
v 0.350000 0.150000 0.000000
v 0.243934 0.106066 0.000000
v 0.211253 0.106066 0.121967
v 0.121967 0.106066 0.211253
v 0.000000 0.106066 0.243934
v -0.121967 0.106066 0.211253
v -0.211253 0.106066 0.121967
v -0.243934 0.106066 0.000000
v -0.211253 0.106066 -0.121967
v -0.121967 0.106066 -0.211253
v 0.000000 0.106066 -0.243934
v 0.121967 0.106066 -0.211253
v 0.211253 0.106066 -0.121967
v 0.243934 0.106066 0.000000
v 0.200000 0.000000 0.000000
v 0.173205 0.000000 0.100000
v 0.100000 0.000000 0.173205
v 0.000000 0.000000 0.200000
v -0.100000 0.000000 0.173205
v -0.173205 0.000000 0.100000
v -0.200000 0.000000 0.000000
v -0.173205 0.000000 -0.100000
v -0.100000 0.000000 -0.173205
v 0.000000 0.000000 -0.200000
v 0.100000 0.000000 -0.173205
v 0.173205 0.000000 -0.100000
v 0.200000 0.000000 0.000000
v 0.243934 -0.106066 0.000000
v 0.211253 -0.106066 0.121967
v 0.121967 -0.106066 0.211253
v 0.000000 -0.106066 0.243934
v -0.121967 -0.106066 0.211253
v -0.211253 -0.106066 0.121967
v -0.243934 -0.106066 0.000000
v -0.211253 -0.106066 -0.121967
v -0.121967 -0.106066 -0.211253
v 0.000000 -0.106066 -0.243934
v 0.121967 -0.106066 -0.211253
v 0.211253 -0.106066 -0.121967
v 0.243934 -0.106066 0.000000
v 0.350000 -0.150000 0.000000
v 0.303109 -0.150000 0.175000
v 0.175000 -0.150000 0.303109
v 0.000000 -0.150000 0.350000
v -0.175000 -0.150000 0.303109
v -0.303109 -0.150000 0.175000
v -0.350000 -0.150000 0.000000
v -0.303109 -0.150000 -0.175000
v -0.175000 -0.150000 -0.303109
v 0.000000 -0.150000 -0.350000
v 0.175000 -0.150000 -0.303109
v 0.303109 -0.150000 -0.175000
v 0.350000 -0.150000 0.000000
v 0.456066 -0.106066 0.000000
v 0.394965 -0.106066 0.228033
v 0.228033 -0.106066 0.394965
v 0.000000 -0.106066 0.456066
v -0.228033 -0.106066 0.394965
v -0.394965 -0.106066 0.228033
v -0.456066 -0.106066 0.000000
v -0.394965 -0.106066 -0.228033
v -0.228033 -0.106066 -0.394965
v 0.000000 -0.106066 -0.456066
v 0.228033 -0.106066 -0.394965
v 0.394965 -0.106066 -0.228033
v 0.456066 -0.106066 0.000000
v 0.500000 0.000000 0.000000
v 0.433013 0.000000 0.250000
v 0.250000 0.000000 0.433013
v 0.000000 0.000000 0.500000
v -0.250000 0.000000 0.433013
v -0.433013 0.000000 0.250000
v -0.500000 0.000000 0.000000
v -0.433013 0.000000 -0.250000
v -0.250000 0.000000 -0.433013
v 0.000000 0.000000 -0.500000
v 0.250000 0.000000 -0.433013
v 0.433013 0.000000 -0.250000
v 0.500000 0.000000 0.000000
vt 0.000000 0.000000
vt 0.083333 0.000000
vt 0.166667 0.000000
vt 0.250000 0.000000
vt 0.333333 0.000000
vt 0.416667 0.000000
vt 0.500000 0.000000
vt 0.583333 0.000000
vt 0.666667 0.000000
vt 0.750000 0.000000
vt 0.833333 0.000000
vt 0.916667 0.000000
vt 1.000000 0.000000
vt 0.000000 0.125000
vt 0.083333 0.125000
vt 0.166667 0.125000
vt 0.250000 0.125000
vt 0.333333 0.125000
vt 0.416667 0.125000
vt 0.500000 0.125000
vt 0.583333 0.125000
vt 0.666667 0.125000
vt 0.750000 0.125000
vt 0.833333 0.125000
vt 0.916667 0.125000
vt 1.000000 0.125000
vt 0.000000 0.250000
vt 0.083333 0.250000
vt 0.166667 0.250000
vt 0.250000 0.250000
vt 0.333333 0.250000
vt 0.416667 0.250000
vt 0.500000 0.250000
vt 0.583333 0.250000
vt 0.666667 0.250000
vt 0.750000 0.250000
vt 0.833333 0.250000
vt 0.916667 0.250000
vt 1.000000 0.250000
vt 0.000000 0.375000
vt 0.083333 0.375000
vt 0.166667 0.375000
vt 0.250000 0.375000
vt 0.333333 0.375000
vt 0.416667 0.375000
vt 0.500000 0.375000
vt 0.583333 0.375000
vt 0.666667 0.375000
vt 0.750000 0.375000
vt 0.833333 0.375000
vt 0.916667 0.375000
vt 1.000000 0.375000
vt 0.000000 0.500000
vt 0.083333 0.500000
vt 0.166667 0.500000
vt 0.250000 0.500000
vt 0.333333 0.500000
vt 0.416667 0.500000
vt 0.500000 0.500000
vt 0.583333 0.500000
vt 0.666667 0.500000
vt 0.750000 0.500000
vt 0.833333 0.500000
vt 0.916667 0.500000
vt 1.000000 0.500000
vt 0.000000 0.625000
vt 0.083333 0.625000
vt 0.166667 0.625000
vt 0.250000 0.625000
vt 0.333333 0.625000
vt 0.416667 0.625000
vt 0.500000 0.625000
vt 0.583333 0.625000
vt 0.666667 0.625000
vt 0.750000 0.625000
vt 0.833333 0.625000
vt 0.916667 0.625000
vt 1.000000 0.625000
vt 0.000000 0.750000
vt 0.083333 0.750000
vt 0.166667 0.750000
vt 0.250000 0.750000
vt 0.333333 0.750000
vt 0.416667 0.750000
vt 0.500000 0.750000
vt 0.583333 0.750000
vt 0.666667 0.750000
vt 0.750000 0.750000
vt 0.833333 0.750000
vt 0.916667 0.750000
vt 1.000000 0.750000
vt 0.000000 0.875000
vt 0.083333 0.875000
vt 0.166667 0.875000
vt 0.250000 0.875000
vt 0.333333 0.875000
vt 0.416667 0.875000
vt 0.500000 0.875000
vt 0.583333 0.875000
vt 0.666667 0.875000
vt 0.750000 0.875000
vt 0.833333 0.875000
vt 0.916667 0.875000
vt 1.000000 0.875000
vt 0.000000 1.000000
vt 0.083333 1.000000
vt 0.166667 1.000000
vt 0.250000 1.000000
vt 0.333333 1.000000
vt 0.416667 1.000000
vt 0.500000 1.000000
vt 0.583333 1.000000
vt 0.666667 1.000000
vt 0.750000 1.000000
vt 0.833333 1.000000
vt 0.916667 1.000000
vt 1.000000 1.000000
vn 1.000000 0.000000 0.000000
vn 0.866025 0.000000 0.500000
vn 0.500000 0.000000 0.866025
vn 0.000000 0.000000 1.000000
vn -0.500000 0.000000 0.866025
vn -0.866025 0.000000 0.500000
vn -1.000000 0.000000 0.000000
vn -0.866025 0.000000 -0.500000
vn -0.500000 0.000000 -0.866025
vn 0.000000 0.000000 -1.000000
vn 0.500000 0.000000 -0.866025
vn 0.866025 0.000000 -0.500000
vn 1.000000 0.000000 0.000000
vn 0.707107 0.707107 0.000000
vn 0.612372 0.707107 0.353553
vn 0.353553 0.707107 0.612372
vn 0.000000 0.707107 0.707107
vn -0.353553 0.707107 0.612372
vn -0.612372 0.707107 0.353553
vn -0.707107 0.707107 0.000000
vn -0.612372 0.707107 -0.353553
vn -0.353553 0.707107 -0.612372
vn 0.000000 0.707107 -0.707107
vn 0.353553 0.707107 -0.612372
vn 0.612372 0.707107 -0.353553
vn 0.707107 0.707107 0.000000
vn 0.000000 1.000000 0.000000
vn 0.000000 1.000000 0.000000
vn 0.000000 1.000000 0.000000
vn 0.000000 1.000000 0.000000
vn 0.000000 1.000000 0.000000
vn 0.000000 1.000000 0.000000
vn 0.000000 1.000000 0.000000
vn 0.000000 1.000000 0.000000
vn 0.000000 1.000000 0.000000
vn 0.000000 1.000000 0.000000
vn 0.000000 1.000000 0.000000
vn 0.000000 1.000000 0.000000
vn 0.000000 1.000000 0.000000
vn -0.707107 0.707107 0.000000
vn -0.612372 0.707107 -0.353553
vn -0.353553 0.707107 -0.612372
vn 0.000000 0.707107 -0.707107
vn 0.353553 0.707107 -0.612372
vn 0.612372 0.707107 -0.353553
vn 0.707107 0.707107 0.000000
vn 0.612372 0.707107 0.353553
vn 0.353553 0.707107 0.612372
vn 0.000000 0.707107 0.707107
vn -0.353553 0.707107 0.612372
vn -0.612372 0.707107 0.353553
vn -0.707107 0.707107 0.000000
vn -1.000000 0.000000 0.000000
vn -0.866025 0.000000 -0.500000
vn -0.500000 0.000000 -0.866025
vn 0.000000 0.000000 -1.000000
vn 0.500000 0.000000 -0.866025
vn 0.866025 0.000000 -0.500000
vn 1.000000 0.000000 0.000000
vn 0.866025 0.000000 0.500000
vn 0.500000 0.000000 0.866025
vn 0.000000 0.000000 1.000000
vn -0.500000 0.000000 0.866025
vn -0.866025 0.000000 0.500000
vn -1.000000 0.000000 0.000000
vn -0.707107 -0.707107 0.000000
vn -0.612372 -0.707107 -0.353553
vn -0.353553 -0.707107 -0.612372
vn 0.000000 -0.707107 -0.707107
vn 0.353553 -0.707107 -0.612372
vn 0.612372 -0.707107 -0.353553
vn 0.707107 -0.707107 0.000000
vn 0.612372 -0.707107 0.353553
vn 0.353553 -0.707107 0.612372
vn 0.000000 -0.707107 0.707107
vn -0.353553 -0.707107 0.612372
vn -0.612372 -0.707107 0.353553
vn -0.707107 -0.707107 0.000000
vn 0.000000 -1.000000 0.000000
vn 0.000000 -1.000000 0.000000
vn 0.000000 -1.000000 0.000000
vn 0.000000 -1.000000 0.000000
vn 0.000000 -1.000000 0.000000
vn 0.000000 -1.000000 0.000000
vn 0.000000 -1.000000 0.000000
vn 0.000000 -1.000000 0.000000
vn 0.000000 -1.000000 0.000000
vn 0.000000 -1.000000 0.000000
vn 0.000000 -1.000000 0.000000
vn 0.000000 -1.000000 0.000000
vn 0.000000 -1.000000 0.000000
vn 0.707107 -0.707107 0.000000
vn 0.612372 -0.707107 0.353553
vn 0.353553 -0.707107 0.612372
vn 0.000000 -0.707107 0.707107
vn -0.353553 -0.707107 0.612372
vn -0.612372 -0.707107 0.353553
vn -0.707107 -0.707107 0.000000
vn -0.612372 -0.707107 -0.353553
vn -0.353553 -0.707107 -0.612372
vn 0.000000 -0.707107 -0.707107
vn 0.353553 -0.707107 -0.612372
vn 0.612372 -0.707107 -0.353553
vn 0.707107 -0.707107 0.000000
vn 1.000000 0.000000 0.000000
vn 0.866025 0.000000 0.500000
vn 0.500000 0.000000 0.866025
vn 0.000000 0.000000 1.000000
vn -0.500000 0.000000 0.866025
vn -0.866025 0.000000 0.500000
vn -1.000000 0.000000 0.000000
vn -0.866025 0.000000 -0.500000
vn -0.500000 0.000000 -0.866025
vn 0.000000 0.000000 -1.000000
vn 0.500000 0.000000 -0.866025
vn 0.866025 0.000000 -0.500000
vn 1.000000 0.000000 0.000000
f 1/1/1 14/14/14 15/15/15
f 1/1/1 15/15/15 2/2/2
f 2/2/2 15/15/15 16/16/16
f 2/2/2 16/16/16 3/3/3
f 3/3/3 16/16/16 17/17/17
f 3/3/3 17/17/17 4/4/4
f 4/4/4 17/17/17 18/18/18
f 4/4/4 18/18/18 5/5/5
f 5/5/5 18/18/18 19/19/19
f 5/5/5 19/19/19 6/6/6
f 6/6/6 19/19/19 20/20/20
f 6/6/6 20/20/20 7/7/7
f 7/7/7 20/20/20 21/21/21
f 7/7/7 21/21/21 8/8/8
f 8/8/8 21/21/21 22/22/22
f 8/8/8 22/22/22 9/9/9
f 9/9/9 22/22/22 23/23/23
f 9/9/9 23/23/23 10/10/10
f 10/10/10 23/23/23 24/24/24
f 10/10/10 24/24/24 11/11/11
f 11/11/11 24/24/24 25/25/25
f 11/11/11 25/25/25 12/12/12
f 12/12/12 25/25/25 26/26/26
f 12/12/12 26/26/26 13/13/13
f 14/14/14 27/27/27 28/28/28
f 14/14/14 28/28/28 15/15/15
f 15/15/15 28/28/28 29/29/29
f 15/15/15 29/29/29 16/16/16
f 16/16/16 29/29/29 30/30/30
f 16/16/16 30/30/30 17/17/17
f 17/17/17 30/30/30 31/31/31
f 17/17/17 31/31/31 18/18/18
f 18/18/18 31/31/31 32/32/32
f 18/18/18 32/32/32 19/19/19
f 19/19/19 32/32/32 33/33/33
f 19/19/19 33/33/33 20/20/20
f 20/20/20 33/33/33 34/34/34
f 20/20/20 34/34/34 21/21/21
f 21/21/21 34/34/34 35/35/35
f 21/21/21 35/35/35 22/22/22
f 22/22/22 35/35/35 36/36/36
f 22/22/22 36/36/36 23/23/23
f 23/23/23 36/36/36 37/37/37
f 23/23/23 37/37/37 24/24/24
f 24/24/24 37/37/37 38/38/38
f 24/24/24 38/38/38 25/25/25
f 25/25/25 38/38/38 39/39/39
f 25/25/25 39/39/39 26/26/26
f 27/27/27 40/40/40 41/41/41
f 27/27/27 41/41/41 28/28/28
f 28/28/28 41/41/41 42/42/42
f 28/28/28 42/42/42 29/29/29
f 29/29/29 42/42/42 43/43/43
f 29/29/29 43/43/43 30/30/30
f 30/30/30 43/43/43 44/44/44
f 30/30/30 44/44/44 31/31/31
f 31/31/31 44/44/44 45/45/45
f 31/31/31 45/45/45 32/32/32
f 32/32/32 45/45/45 46/46/46
f 32/32/32 46/46/46 33/33/33
f 33/33/33 46/46/46 47/47/47
f 33/33/33 47/47/47 34/34/34
f 34/34/34 47/47/47 48/48/48
f 34/34/34 48/48/48 35/35/35
f 35/35/35 48/48/48 49/49/49
f 35/35/35 49/49/49 36/36/36
f 36/36/36 49/49/49 50/50/50
f 36/36/36 50/50/50 37/37/37
f 37/37/37 50/50/50 51/51/51
f 37/37/37 51/51/51 38/38/38
f 38/38/38 51/51/51 52/52/52
f 38/38/38 52/52/52 39/39/39
f 40/40/40 53/53/53 54/54/54
f 40/40/40 54/54/54 41/41/41
f 41/41/41 54/54/54 55/55/55
f 41/41/41 55/55/55 42/42/42
f 42/42/42 55/55/55 56/56/56
f 42/42/42 56/56/56 43/43/43
f 43/43/43 56/56/56 57/57/57
f 43/43/43 57/57/57 44/44/44
f 44/44/44 57/57/57 58/58/58
f 44/44/44 58/58/58 45/45/45
f 45/45/45 58/58/58 59/59/59
f 45/45/45 59/59/59 46/46/46
f 46/46/46 59/59/59 60/60/60
f 46/46/46 60/60/60 47/47/47
f 47/47/47 60/60/60 61/61/61
f 47/47/47 61/61/61 48/48/48
f 48/48/48 61/61/61 62/62/62
f 48/48/48 62/62/62 49/49/49
f 49/49/49 62/62/62 63/63/63
f 49/49/49 63/63/63 50/50/50
f 50/50/50 63/63/63 64/64/64
f 50/50/50 64/64/64 51/51/51
f 51/51/51 64/64/64 65/65/65
f 51/51/51 65/65/65 52/52/52
f 53/53/53 66/66/66 67/67/67
f 53/53/53 67/67/67 54/54/54
f 54/54/54 67/67/67 68/68/68
f 54/54/54 68/68/68 55/55/55
f 55/55/55 68/68/68 69/69/69
f 55/55/55 69/69/69 56/56/56
f 56/56/56 69/69/69 70/70/70
f 56/56/56 70/70/70 57/57/57
f 57/57/57 70/70/70 71/71/71
f 57/57/57 71/71/71 58/58/58
f 58/58/58 71/71/71 72/72/72
f 58/58/58 72/72/72 59/59/59
f 59/59/59 72/72/72 73/73/73
f 59/59/59 73/73/73 60/60/60
f 60/60/60 73/73/73 74/74/74
f 60/60/60 74/74/74 61/61/61
f 61/61/61 74/74/74 75/75/75
f 61/61/61 75/75/75 62/62/62
f 62/62/62 75/75/75 76/76/76
f 62/62/62 76/76/76 63/63/63
f 63/63/63 76/76/76 77/77/77
f 63/63/63 77/77/77 64/64/64
f 64/64/64 77/77/77 78/78/78
f 64/64/64 78/78/78 65/65/65
f 66/66/66 79/79/79 80/80/80
f 66/66/66 80/80/80 67/67/67
f 67/67/67 80/80/80 81/81/81
f 67/67/67 81/81/81 68/68/68
f 68/68/68 81/81/81 82/82/82
f 68/68/68 82/82/82 69/69/69
f 69/69/69 82/82/82 83/83/83
f 69/69/69 83/83/83 70/70/70
f 70/70/70 83/83/83 84/84/84
f 70/70/70 84/84/84 71/71/71
f 71/71/71 84/84/84 85/85/85
f 71/71/71 85/85/85 72/72/72
f 72/72/72 85/85/85 86/86/86
f 72/72/72 86/86/86 73/73/73
f 73/73/73 86/86/86 87/87/87
f 73/73/73 87/87/87 74/74/74
f 74/74/74 87/87/87 88/88/88
f 74/74/74 88/88/88 75/75/75
f 75/75/75 88/88/88 89/89/89
f 75/75/75 89/89/89 76/76/76
f 76/76/76 89/89/89 90/90/90
f 76/76/76 90/90/90 77/77/77
f 77/77/77 90/90/90 91/91/91
f 77/77/77 91/91/91 78/78/78
f 79/79/79 92/92/92 93/93/93
f 79/79/79 93/93/93 80/80/80
f 80/80/80 93/93/93 94/94/94
f 80/80/80 94/94/94 81/81/81
f 81/81/81 94/94/94 95/95/95
f 81/81/81 95/95/95 82/82/82
f 82/82/82 95/95/95 96/96/96
f 82/82/82 96/96/96 83/83/83
f 83/83/83 96/96/96 97/97/97
f 83/83/83 97/97/97 84/84/84
f 84/84/84 97/97/97 98/98/98
f 84/84/84 98/98/98 85/85/85
f 85/85/85 98/98/98 99/99/99
f 85/85/85 99/99/99 86/86/86
f 86/86/86 99/99/99 100/100/100
f 86/86/86 100/100/100 87/87/87
f 87/87/87 100/100/100 101/101/101
f 87/87/87 101/101/101 88/88/88
f 88/88/88 101/101/101 102/102/102
f 88/88/88 102/102/102 89/89/89
f 89/89/89 102/102/102 103/103/103
f 89/89/89 103/103/103 90/90/90
f 90/90/90 103/103/103 104/104/104
f 90/90/90 104/104/104 91/91/91
f 92/92/92 105/105/105 106/106/106
f 92/92/92 106/106/106 93/93/93
f 93/93/93 106/106/106 107/107/107
f 93/93/93 107/107/107 94/94/94
f 94/94/94 107/107/107 108/108/108
f 94/94/94 108/108/108 95/95/95
f 95/95/95 108/108/108 109/109/109
f 95/95/95 109/109/109 96/96/96
f 96/96/96 109/109/109 110/110/110
f 96/96/96 110/110/110 97/97/97
f 97/97/97 110/110/110 111/111/111
f 97/97/97 111/111/111 98/98/98
f 98/98/98 111/111/111 112/112/112
f 98/98/98 112/112/112 99/99/99
f 99/99/99 112/112/112 113/113/113
f 99/99/99 113/113/113 100/100/100
f 100/100/100 113/113/113 114/114/114
f 100/100/100 114/114/114 101/101/101
f 101/101/101 114/114/114 115/115/115
f 101/101/101 115/115/115 102/102/102
f 102/102/102 115/115/115 116/116/116
f 102/102/102 116/116/116 103/103/103
f 103/103/103 116/116/116 117/117/117
f 103/103/103 117/117/117 104/104/104
